<svg width="1733" height="645" viewBox="0 0 1733 645" fill="none" xmlns="http://www.w3.org/2000/svg">
<circle opacity="0.2" cx="51" cy="182" r="51" fill="url(#paint0_linear_14694_42189)"/>
<path opacity="0.1" d="M829.5 555.078L508.562 322.5L829.5 89.9222L829.5 555.078Z" stroke="url(#paint1_linear_14694_42189)" stroke-width="30"/>
<path opacity="0.05" d="M672.5 555.078L351.562 322.5L672.5 89.9222L672.5 555.078Z" stroke="url(#paint2_linear_14694_42189)" stroke-width="30"/>
<path opacity="0.15" d="M972.5 555.078L651.562 322.5L972.5 89.9222L972.5 555.078Z" stroke="url(#paint3_linear_14694_42189)" stroke-width="30"/>
<path opacity="0.2" d="M1115.5 555.078L794.562 322.5L1115.5 89.9222L1115.5 555.078Z" stroke="url(#paint4_linear_14694_42189)" stroke-width="30"/>
<path opacity="0.2" d="M1258.5 555.078L937.562 322.5L1258.5 89.9222L1258.5 555.078Z" stroke="url(#paint5_linear_14694_42189)" stroke-width="30"/>
<path opacity="0.2" d="M1401.5 555.078L1080.56 322.5L1401.5 89.9222L1401.5 555.078Z" stroke="url(#paint6_linear_14694_42189)" stroke-width="30"/>
<path opacity="0.2" d="M1544.5 555.078L1223.56 322.5L1544.5 89.9222L1544.5 555.078Z" stroke="url(#paint7_linear_14694_42189)" stroke-width="30"/>
<g opacity="0.2" filter="url(#filter0_f_14694_42189)">
<path d="M1687.5 555.078L1366.56 322.5L1687.5 89.9222L1687.5 555.078Z" stroke="url(#paint8_linear_14694_42189)" stroke-width="30"/>
</g>
<g opacity="0.2" filter="url(#filter1_f_14694_42189)">
<path d="M1830.5 555.078L1509.56 322.5L1830.5 89.9222L1830.5 555.078Z" stroke="url(#paint9_linear_14694_42189)" stroke-width="30"/>
</g>
<g opacity="0.2" filter="url(#filter2_f_14694_42189)">
<path d="M1973.5 555.078L1652.56 322.5L1973.5 89.9222L1973.5 555.078Z" stroke="url(#paint10_linear_14694_42189)" stroke-width="30"/>
</g>
<defs>
<filter id="filter0_f_14694_42189" x="1321" y="40.5273" width="401.5" height="563.945" filterUnits="userSpaceOnUse" color-interpolation-filters="sRGB">
<feFlood flood-opacity="0" result="BackgroundImageFix"/>
<feBlend mode="normal" in="SourceGraphic" in2="BackgroundImageFix" result="shape"/>
<feGaussianBlur stdDeviation="10" result="effect1_foregroundBlur_14694_42189"/>
</filter>
<filter id="filter1_f_14694_42189" x="1454" y="30.5273" width="421.5" height="583.945" filterUnits="userSpaceOnUse" color-interpolation-filters="sRGB">
<feFlood flood-opacity="0" result="BackgroundImageFix"/>
<feBlend mode="normal" in="SourceGraphic" in2="BackgroundImageFix" result="shape"/>
<feGaussianBlur stdDeviation="15" result="effect1_foregroundBlur_14694_42189"/>
</filter>
<filter id="filter2_f_14694_42189" x="1567" y="0.527344" width="481.5" height="643.945" filterUnits="userSpaceOnUse" color-interpolation-filters="sRGB">
<feFlood flood-opacity="0" result="BackgroundImageFix"/>
<feBlend mode="normal" in="SourceGraphic" in2="BackgroundImageFix" result="shape"/>
<feGaussianBlur stdDeviation="30" result="effect1_foregroundBlur_14694_42189"/>
</filter>
<linearGradient id="paint0_linear_14694_42189" x1="51" y1="131" x2="51" y2="233" gradientUnits="userSpaceOnUse">
<stop stop-color="#CF87F5"/>
<stop offset="1" stop-color="#CF87F5" stop-opacity="0"/>
</linearGradient>
<linearGradient id="paint1_linear_14694_42189" x1="483" y1="322.5" x2="965" y2="322.5" gradientUnits="userSpaceOnUse">
<stop stop-color="#88EEF5"/>
<stop offset="0.770833" stop-color="#D088F5" stop-opacity="0"/>
</linearGradient>
<linearGradient id="paint2_linear_14694_42189" x1="326" y1="322.5" x2="808" y2="322.5" gradientUnits="userSpaceOnUse">
<stop stop-color="#88EEF5"/>
<stop offset="0.770833" stop-color="#D088F5" stop-opacity="0"/>
</linearGradient>
<linearGradient id="paint3_linear_14694_42189" x1="626" y1="322.5" x2="1108" y2="322.5" gradientUnits="userSpaceOnUse">
<stop stop-color="#88EEF5"/>
<stop offset="0.770833" stop-color="#D088F5" stop-opacity="0"/>
</linearGradient>
<linearGradient id="paint4_linear_14694_42189" x1="769" y1="322.5" x2="1251" y2="322.5" gradientUnits="userSpaceOnUse">
<stop stop-color="#88EEF5"/>
<stop offset="0.770833" stop-color="#D088F5" stop-opacity="0"/>
</linearGradient>
<linearGradient id="paint5_linear_14694_42189" x1="912" y1="322.5" x2="1394" y2="322.5" gradientUnits="userSpaceOnUse">
<stop stop-color="#88EEF5"/>
<stop offset="0.770833" stop-color="#D088F5" stop-opacity="0"/>
</linearGradient>
<linearGradient id="paint6_linear_14694_42189" x1="1055" y1="322.5" x2="1537" y2="322.5" gradientUnits="userSpaceOnUse">
<stop stop-color="#88EEF5"/>
<stop offset="0.770833" stop-color="#D088F5" stop-opacity="0"/>
</linearGradient>
<linearGradient id="paint7_linear_14694_42189" x1="1198" y1="322.5" x2="1680" y2="322.5" gradientUnits="userSpaceOnUse">
<stop stop-color="#88EEF5"/>
<stop offset="0.770833" stop-color="#D088F5" stop-opacity="0"/>
</linearGradient>
<linearGradient id="paint8_linear_14694_42189" x1="1341" y1="322.5" x2="1823" y2="322.5" gradientUnits="userSpaceOnUse">
<stop stop-color="#88EEF5"/>
<stop offset="0.770833" stop-color="#D088F5" stop-opacity="0"/>
</linearGradient>
<linearGradient id="paint9_linear_14694_42189" x1="1484" y1="322.5" x2="1966" y2="322.5" gradientUnits="userSpaceOnUse">
<stop stop-color="#88EEF5"/>
<stop offset="0.770833" stop-color="#D088F5" stop-opacity="0"/>
</linearGradient>
<linearGradient id="paint10_linear_14694_42189" x1="1627" y1="322.5" x2="2109" y2="322.5" gradientUnits="userSpaceOnUse">
<stop stop-color="#88EEF5"/>
<stop offset="0.770833" stop-color="#D088F5" stop-opacity="0"/>
</linearGradient>
</defs>
</svg>
