<svg width="10" height="10" viewBox="0 0 10 10" fill="none" xmlns="http://www.w3.org/2000/svg">
<path fill-rule="evenodd" clip-rule="evenodd" d="M1.68084 8.73512C1.60759 8.66972 1.53564 8.60301 1.46501 8.53237C1.23026 8.29695 1.02096 8.04158 0.838517 7.76873C0.888747 7.84409 0.941038 7.91811 0.995367 7.99077C0.914268 8.40673 0.956125 8.71281 1.11178 8.86847C1.21643 8.9718 1.38647 9.02543 1.61276 9.02543C2.51793 9.02543 4.30864 8.16605 6.22493 6.24715C7.30014 5.17194 8.15429 4.01301 8.63042 2.98358C9.0333 2.11242 9.1144 1.40346 8.84494 1.134C8.7403 1.03067 8.57025 0.977037 8.34396 0.977037C8.24586 0.977037 8.13598 0.987501 8.01695 1.00843C7.7318 0.792602 7.42441 0.60686 7.09739 0.456435C7.49112 0.307318 7.85344 0.220987 8.17653 0.19875C8.82663 0.154276 9.20073 0.381876 9.39955 0.580699C9.59968 0.779522 9.82728 1.15362 9.7815 1.80503C9.75142 2.24322 9.60361 2.75075 9.34331 3.31451C8.82925 4.42635 7.92015 5.66638 6.78085 6.80438C5.64154 7.94237 4.40282 8.85277 3.29098 9.36683C2.72722 9.62714 2.2197 9.77494 1.7815 9.80503C1.72526 9.80895 1.67032 9.81026 1.618 9.81026C1.06731 9.81026 0.740298 9.6049 0.55848 9.42308C0.358349 9.22426 0.130749 8.85016 0.176531 8.20006C0.200034 7.86449 0.291315 7.4872 0.450373 7.07602C0.430471 7.0329 0.41115 6.98947 0.392413 6.94572C0.132113 6.32832 0 5.6743 0 4.99935C0 4.3244 0.132113 3.66906 0.392413 3.05298C0.644866 2.45782 1.00458 1.92283 1.4637 1.4637C1.92283 1.00458 2.45782 0.644866 3.05298 0.392413C3.67037 0.132113 4.3244 0 4.99935 0C5.6743 0 6.32963 0.132113 6.94572 0.392413C7.54088 0.644866 8.07587 1.00458 8.53499 1.4637C8.59385 1.52256 8.65141 1.58404 8.70765 1.64552C8.70617 1.65544 8.70443 1.66546 8.70244 1.67559C8.70692 1.67886 8.71138 1.68213 8.71582 1.6854C8.09597 3.3236 5.93439 6.89533 2.13276 8.54154C1.97102 8.63131 1.82085 8.70966 1.68084 8.73512ZM9.18116 4.45912C9.35644 4.16874 9.50948 3.88358 9.63767 3.60628C9.67168 3.53172 9.70438 3.45847 9.73447 3.38522L9.74679 3.42174L9.75152 3.41135L9.74883 3.42787C9.91587 3.93167 10 4.45863 10 4.99673C10 5.67168 9.86789 6.32701 9.60759 6.9431C9.35513 7.53826 8.99542 8.07325 8.5363 8.53237C8.07718 8.9915 7.54218 9.35121 6.94702 9.60366C6.32963 9.86396 5.6756 9.99608 5.00065 9.99608C4.45389 9.99608 3.9189 9.90844 3.40746 9.73708C3.43825 9.72408 3.46905 9.71072 3.50004 9.697L3.46859 9.69428C3.6121 9.63546 3.75353 9.57302 3.89284 9.50724C4.08435 9.40807 4.27914 9.29827 4.47613 9.17855L4.5168 9.1833C6.69681 7.94766 8.29619 5.93676 9.18278 4.47213L9.18116 4.45912ZM1.50001 5.69992C1.50001 5.88557 1.57376 6.06362 1.70504 6.1949C1.83631 6.32617 2.01436 6.39992 2.20001 6.39992C2.38566 6.39992 2.56371 6.32617 2.69499 6.1949C2.82626 6.06362 2.90001 5.88557 2.90001 5.69992C2.90001 5.51427 2.82626 5.33622 2.69499 5.20495C2.56371 5.07367 2.38566 4.99992 2.20001 4.99992C2.01436 4.99992 1.83631 5.07367 1.70504 5.20495C1.57376 5.33622 1.50001 5.51427 1.50001 5.69992ZM4.14646 4.85347C4.05269 4.75971 4.00001 4.63253 4.00001 4.49992C4.00001 4.36731 4.05269 4.24014 4.14646 4.14637C4.24023 4.0526 4.3674 3.99992 4.50001 3.99992C4.63262 3.99992 4.7598 4.0526 4.85357 4.14637C4.94733 4.24014 5.00001 4.36731 5.00001 4.49992C5.00001 4.63253 4.94733 4.75971 4.85357 4.85347C4.7598 4.94724 4.63262 4.99992 4.50001 4.99992C4.3674 4.99992 4.24023 4.94724 4.14646 4.85347ZM4.00001 1.99992C4.00001 2.26514 4.10537 2.51949 4.29291 2.70703C4.48044 2.89456 4.7348 2.99992 5.00001 2.99992C5.26523 2.99992 5.51958 2.89456 5.70712 2.70703C5.89466 2.51949 6.00001 2.26514 6.00001 1.99992C6.00001 1.7347 5.89466 1.48035 5.70712 1.29281C5.51958 1.10528 5.26523 0.999921 5.00001 0.999921C4.7348 0.999921 4.48044 1.10528 4.29291 1.29281C4.10537 1.48035 4.00001 1.7347 4.00001 1.99992Z" fill="white"/>
</svg>
