<svg width="10" height="10" viewBox="0 0 10 10" fill="none" xmlns="http://www.w3.org/2000/svg">
<path d="M6.04413 1.23579C6.05875 1.25191 6.06683 1.26673 6.08298 1.28285C6.40447 1.62816 6.8508 2.10003 7.39862 2.68063C7.86896 3.1684 8.32991 3.65488 8.69025 4.02447L3.56279 9.17487L3.23432 9.48923C2.89296 9.81735 2.4346 10.0007 1.95753 10H0.493038C0.219783 10 0 9.78082 0 9.50535V8.06073C0 7.54996 0.210398 7.06348 0.578812 6.71001L0.853595 6.44378L6.04413 1.23579ZM6.82657 0.46567C6.97207 0.318315 7.1461 0.20118 7.33838 0.121196C7.53065 0.041211 7.73727 0 7.946 0C8.15474 0 8.36135 0.041211 8.55363 0.121196C8.74591 0.20118 8.91994 0.318315 9.06543 0.46567L9.53577 0.937541C10.1547 1.55854 10.1547 2.56373 9.53577 3.18301L9.48077 3.2464C8.4397 2.16986 7.40539 1.08645 6.82657 0.46567Z" fill="white"/>
</svg>
