<svg width="11" height="11" viewBox="0 0 11 11" fill="none" xmlns="http://www.w3.org/2000/svg">
<path d="M4.8357 8.75544L4.83397 8.77614V8.79691C4.83397 8.86386 4.84297 8.97626 4.85287 9.06873C4.85863 9.12261 4.86885 9.21365 4.88635 9.29767C4.88162 9.30605 4.87193 9.31982 4.8528 9.33957C4.83019 9.36291 4.80444 9.38318 4.78326 9.39781C4.77324 9.40474 4.76568 9.40941 4.76201 9.4116C4.76172 9.41177 4.76146 9.41193 4.76122 9.41207L3.92482 9.85537L4.76912 10.2949L5 9.8514C4.76912 10.2949 4.76928 10.295 4.76945 10.2951L4.7698 10.2953L4.77055 10.2956L4.77223 10.2965L4.77635 10.2986L4.78751 10.3042C4.79623 10.3084 4.80752 10.3138 4.82119 10.32C4.84846 10.3325 4.88557 10.3485 4.93095 10.3657C5.02087 10.3999 5.14782 10.441 5.29841 10.4686C5.59311 10.5226 6.03027 10.5335 6.44514 10.2764C6.77137 10.0742 7.13914 9.72704 7.29672 9.29679C7.36749 9.10357 7.40024 8.87893 7.34973 8.64602C7.63238 8.58248 7.88957 8.39969 8.04203 8.09443L8.11775 7.94282C8.27497 7.63734 8.61703 6.98295 8.99181 6.26598C9.6336 5.0382 10.3713 3.62692 10.4409 3.47016L10.4507 3.44812L10.4583 3.42524C10.5167 3.24988 10.5283 3.01827 10.395 2.81065C10.2799 2.6314 10.1025 2.54174 9.92997 2.5172C9.806 2.48644 9.68287 2.49902 9.57696 2.53878C9.46157 2.5821 9.3789 2.65222 9.3293 2.70082C9.28806 2.73989 9.24903 2.78679 9.2282 2.81183L9.2265 2.81387C9.19074 2.85684 9.14657 2.91192 9.09645 2.97558C8.99579 3.10345 8.8636 3.27551 8.71191 3.47517C8.40814 3.875 8.02082 4.39255 7.64001 4.90408C7.25901 5.41587 6.88373 5.92272 6.60375 6.30154C6.46374 6.49097 6.34753 6.64844 6.26631 6.75856L6.17212 6.88633L6.14732 6.91999L6.14197 6.92725C5.98025 7.13869 5.92323 7.38884 5.94919 7.63063C5.2575 7.6736 4.87514 8.28155 4.8357 8.75544ZM4.88951 9.29129C4.88977 9.28889 4.89028 9.28764 4.89047 9.28761C4.89065 9.28759 4.89052 9.28879 4.88951 9.29129Z" fill="white" stroke="#CA0000"/>
<path fill-rule="evenodd" clip-rule="evenodd" d="M6.51002 5.98714C6.20495 6.31361 5.89902 6.66435 5.5976 7.03567C5.29503 7.4084 5.01369 7.7813 4.75613 8.14831H0.370099C0.222059 8.14831 0.0832722 8.05571 0.0277574 7.91682C-0.0277573 7.77793 0 7.62052 0.111029 7.50941L2.4334 5.18529H1.85049C1.64694 5.18529 1.48039 5.01862 1.48039 4.81491V0.370378C1.48039 0.16667 1.64694 0 1.85049 0H6.29167C6.49523 0 6.66177 0.16667 6.66177 0.370378V4.81491C6.66177 5.01862 6.49523 5.18529 6.29167 5.18529H5.70877L6.51002 5.98714Z" fill="white"/>
<path d="M2.77539 2.77809C2.77539 3.49107 3.3583 4.07441 4.07074 4.07441C4.78317 4.07441 5.36608 3.49107 5.36608 2.77809C5.36608 2.57438 5.19954 2.40771 4.99598 2.40771C4.79243 2.40771 4.62588 2.57438 4.62588 2.77809C4.62588 3.08365 4.37607 3.33366 4.07074 3.33366C3.7654 3.33366 3.51559 3.08365 3.51559 2.77809C3.51559 2.57438 3.34904 2.40771 3.14549 2.40771C2.94194 2.40771 2.77539 2.57438 2.77539 2.77809Z" fill="#CA0000"/>
</svg>
