<svg width="10" height="9" viewBox="0 0 10 9" fill="none" xmlns="http://www.w3.org/2000/svg">
<path d="M9.01786 0H0.982143C0.446429 0 0 0.445544 0 0.980198V6.57624C0 7.11089 0.446429 7.55644 0.982143 7.55644H9.01786C9.55357 7.55644 10 7.11089 10 6.57624V0.980198C10 0.445544 9.55357 0 9.01786 0V0ZM3.14286 5.06139C3.28571 5.20396 3.28571 5.41782 3.14286 5.5604C3.07143 5.63168 2.98214 5.66733 2.89286 5.66733C2.80357 5.66733 2.71429 5.63168 2.64286 5.5604L1.32143 4.24158C1.17857 4.09901 1.17857 3.88515 1.32143 3.74257L2.64286 2.42376C2.78571 2.28119 3 2.28119 3.14286 2.42376C3.28571 2.56634 3.28571 2.7802 3.14286 2.92277L2.07143 3.99208L3.14286 5.06139V5.06139ZM5.76786 2.56634L4.92857 5.41782C4.875 5.57822 4.73214 5.66733 4.58929 5.66733C4.55357 5.66733 4.51786 5.66733 4.48214 5.6495C4.28571 5.59604 4.17857 5.4 4.23214 5.20396L5.07143 2.35248C5.125 2.15644 5.32143 2.0495 5.51786 2.10297C5.71429 2.17426 5.82143 2.38812 5.76786 2.56634V2.56634ZM8.67857 4.24158L7.35714 5.5604C7.28572 5.63168 7.19643 5.66733 7.10714 5.66733C7.01786 5.66733 6.92857 5.63168 6.85714 5.5604C6.71429 5.41782 6.71429 5.20396 6.85714 5.06139L7.92857 3.99208L6.85714 2.92277C6.71429 2.7802 6.71429 2.56634 6.85714 2.42376C7 2.28119 7.21429 2.28119 7.35714 2.42376L8.67857 3.74257C8.82143 3.86733 8.82143 4.09901 8.67857 4.24158V4.24158ZM7.82143 9H2.17857C1.98214 9 1.82143 8.8396 1.82143 8.64356C1.82143 8.44752 1.98214 8.28713 2.17857 8.28713H7.82143C8.01786 8.28713 8.17857 8.44752 8.17857 8.64356C8.17857 8.8396 8.01786 9 7.82143 9Z" fill="white"/>
</svg>
