<svg width="10" height="10" viewBox="0 0 10 10" fill="none" xmlns="http://www.w3.org/2000/svg">
<path d="M3.85664 6.45166C3.55832 6.76366 3.17061 6.98325 2.74266 7.08256C2.31472 7.18188 1.86581 7.15646 1.45288 7.00952C1.03994 6.86259 0.681557 6.60076 0.423179 6.25723C0.1648 5.9137 0.0180595 5.50394 0.00156201 5.07991C-0.0149354 4.65588 0.0995534 4.23668 0.330512 3.87546C0.561471 3.51424 0.898498 3.22726 1.29886 3.05092C1.69922 2.87458 2.14489 2.81682 2.57935 2.88495C3.01381 2.95309 3.41749 3.14406 3.73922 3.43364L5.6787 2.21458C5.52371 1.8489 5.5139 1.44099 5.65112 1.06876C5.78835 0.696539 6.063 0.386088 6.42262 0.196703C6.78224 0.00731791 7.20162 -0.0477287 7.60068 0.0420769C7.99973 0.131882 8.35048 0.360246 8.58594 0.683553C8.82141 1.00686 8.92508 1.40245 8.87715 1.79477C8.82923 2.18709 8.63307 2.54864 8.32614 2.81038C8.01921 3.07211 7.62303 3.21569 7.21325 3.21368C6.80347 3.21166 6.40882 3.06421 6.10467 2.79947L4.18965 4.00282C4.35263 4.30098 4.44449 4.64021 4.44449 5.00014C4.44485 5.29335 4.38256 5.58349 4.26151 5.85248L7.05182 7.36542C7.31391 7.06176 7.68285 6.86181 8.08818 6.80375C8.49351 6.7457 8.90681 6.83361 9.24917 7.0507C9.59152 7.26778 9.83892 7.59883 9.94413 7.98062C10.0493 8.3624 10.005 8.76816 9.8195 9.12041C9.63403 9.47266 9.32047 9.74671 8.93869 9.89022C8.55691 10.0337 8.13367 10.0366 7.74981 9.89839C7.36594 9.76014 7.04835 9.49043 6.8577 9.14077C6.66704 8.79111 6.61668 8.38599 6.71622 8.0028L3.85627 6.45202L3.85664 6.45166Z" fill="white"/>
</svg>
