<svg width="16" height="16" viewBox="0 0 16 16" fill="none" xmlns="http://www.w3.org/2000/svg">
<path d="M5.92961 1.21646C6.17921 2.01246 6.62561 4.08686 5.00801 5.29806C4.90561 5.37486 4.76241 5.35326 4.67841 5.25646C4.15201 4.65006 3.24001 4.38047 2.74801 4.27407C2.58561 4.23886 2.43841 4.37566 2.46001 4.53966C2.54321 5.18926 2.64481 6.65247 2.03441 7.48367C1.23361 8.57327 -0.128793 15.5029 8.39121 14.9501C16.4912 14.4253 15.076 6.88286 12.9376 4.22286C12.8136 4.06846 12.5648 4.12286 12.5176 4.31486C12.3672 4.92846 12.056 5.55246 11.6688 5.94206C11.524 6.08767 11.2776 5.98686 11.2632 5.78286C11.1272 3.89006 9.85761 1.11646 6.17361 0.903664C6.00401 0.894864 5.87921 1.05646 5.92961 1.21646Z" fill="#12C57A"/>
<path d="M14.0744 6.3431C13.7736 5.5023 13.3704 4.7631 12.9368 4.2239C12.8128 4.0695 12.564 4.1239 12.5168 4.3159C12.3664 4.9295 12.0552 5.5535 11.668 5.9431C11.5232 6.0887 11.2768 5.9879 11.2624 5.7839C11.1264 3.8911 9.85681 1.1175 6.17281 0.904705C6.00561 0.895105 5.88081 1.0567 5.93041 1.2167C6.18001 2.0127 6.62641 4.0871 5.00881 5.2983C4.90641 5.3751 4.76321 5.3535 4.67921 5.2567C4.15201 4.6503 3.24001 4.3807 2.74801 4.2743C2.58561 4.2391 2.43841 4.3759 2.46001 4.5399C2.54321 5.1895 2.64481 6.6527 2.03441 7.4839C1.50321 8.2063 0.727212 11.4935 2.74481 13.4679C3.21041 13.5663 3.68881 13.6335 4.17841 13.6623C8.88801 13.9423 13.0056 10.7751 14.0744 6.3431Z" fill="#38F0A3"/>
<path d="M11.2568 5.7319C11.1024 3.8407 9.82318 1.1151 6.17199 0.904705C6.00479 0.895105 5.87999 1.0567 5.92959 1.2167C6.17919 2.0127 6.62559 4.08711 5.00799 5.29831C4.90559 5.3751 4.76239 5.35351 4.67839 5.25671C4.15199 4.65031 3.23999 4.38071 2.74799 4.27431C2.58559 4.2391 2.43839 4.3759 2.45999 4.5399C2.54319 5.18951 2.64479 6.65271 2.03439 7.48391C1.67839 7.96791 1.21279 9.60471 1.55119 11.2255C1.69519 11.2407 1.83999 11.2535 1.98639 11.2623C6.03279 11.5023 9.64318 9.19751 11.2568 5.7319Z" fill="#7BF9DA"/>
<path d="M1.61761 8.52471C5.22081 8.00711 8.20961 5.43431 9.27281 1.9719C8.51201 1.3911 7.50001 0.981505 6.17201 0.904705C6.00481 0.895105 5.88001 1.0567 5.92961 1.2167C6.17921 2.0127 6.62561 4.08711 5.00801 5.29831C4.90561 5.37511 4.76241 5.35351 4.67841 5.25671C4.15201 4.65031 3.24001 4.38071 2.74801 4.27431C2.58561 4.23911 2.43841 4.37591 2.46001 4.53991C2.54321 5.18951 2.64481 6.65271 2.03441 7.48391C1.89361 7.67511 1.73601 8.04631 1.61761 8.52471Z" fill="#E0FFF8"/>
<path d="M2.99548 4.85302C3.44489 4.9858 3.98059 5.21544 4.30071 5.58417L2.99548 4.85302ZM2.99548 4.85302C3.02175 5.17174 3.03618 5.56828 3.0059 5.98022C2.96293 6.56468 2.82545 7.25113 2.43735 7.77962L2.43724 7.77977C2.30915 7.95405 2.08969 8.49492 1.98714 9.25459C1.88735 9.99387 1.90995 10.8622 2.18983 11.6689C2.46607 12.4651 2.99464 13.21 3.93412 13.733C4.88287 14.2612 6.29123 14.5853 8.35877 14.4511L8.35882 14.4511C10.3067 14.3249 11.6256 13.781 12.4966 13.0447C13.3649 12.3108 13.8316 11.3491 14.0109 10.3027C14.3384 8.39177 13.6955 6.2546 12.8445 4.94752C12.6552 5.45439 12.3732 5.94259 12.0234 6.29452L12.0233 6.29464C11.5494 6.77111 10.8066 6.41269 10.7644 5.81838M2.99548 4.85302L11.2631 5.78286M10.7644 5.81838C10.7644 5.81828 10.7644 5.81818 10.7644 5.81807L11.2631 5.78286M10.7644 5.81838C10.7644 5.81849 10.7644 5.81859 10.7644 5.8187L11.2631 5.78286M10.7644 5.81838C10.7023 4.95543 10.3802 3.89432 9.66429 3.03282C9.01127 2.24696 8.01109 1.60215 6.50917 1.43363M11.2631 5.78286C11.1271 3.89006 9.85755 1.11646 6.17355 0.903664M6.50917 1.43363C6.47452 1.2932 6.43886 1.16961 6.40664 1.06686C6.46122 1.24157 6.32367 1.41213 6.14764 1.40299L6.16108 1.14386L6.1611 1.14352L6.17355 0.903664M6.50917 1.43363C6.61851 1.87672 6.71784 2.48746 6.66746 3.14005C6.60018 4.0117 6.26127 4.98425 5.30763 5.6983M6.50917 1.43363C6.39083 1.42035 6.26936 1.41003 6.14471 1.40283L6.15965 1.14431L6.15967 1.14398L6.17355 0.903664M6.17355 0.903664L5.30763 5.6983M5.30763 5.6983C5.30773 5.69822 5.30784 5.69814 5.30795 5.69806L5.00795 5.29806M5.30763 5.6983L5.92955 1.21646C6.17915 2.01246 6.62555 4.08686 5.00795 5.29806M5.30763 5.6983L5.00795 5.29806M5.30763 5.6983C4.97632 5.94652 4.54054 5.86047 4.30077 5.58423L4.67835 5.25646C4.76235 5.35326 4.90555 5.37486 5.00795 5.29806" fill="url(#paint0_linear_5210_872)" stroke="url(#paint1_linear_5210_872)"/>
<path d="M5.40115 11.6397C4.83444 11.0453 4.31324 10.1388 4.25133 8.7947C4.22634 8.25213 3.53397 7.97813 3.37259 8.49675C2.74101 10.5265 3.95792 11.889 5.16242 12.4748C5.87796 12.8227 5.9502 12.2155 5.40115 11.6397Z" fill="#6E24F0"/>
<defs>
<linearGradient id="paint0_linear_5210_872" x1="8.0155" y1="0.90332" x2="8.0155" y2="14.9814" gradientUnits="userSpaceOnUse">
<stop stop-color="#56F4B2"/>
<stop offset="1" stop-color="#56F4B2" stop-opacity="0"/>
</linearGradient>
<linearGradient id="paint1_linear_5210_872" x1="8.66667" y1="15.333" x2="6.66667" y2="-3.66699" gradientUnits="userSpaceOnUse">
<stop stop-color="#6E24F0"/>
<stop offset="0.29234" stop-color="#7D64E9" stop-opacity="0.70766"/>
<stop offset="1" stop-color="#A2FFD9" stop-opacity="0"/>
</linearGradient>
</defs>
</svg>
