<svg width="1920" height="731" viewBox="0 0 1920 731" fill="none" xmlns="http://www.w3.org/2000/svg">
<mask id="mask0_6603_33156" style="mask-type:alpha" maskUnits="userSpaceOnUse" x="0" y="0" width="1920" height="731">
<rect width="1920" height="731" fill="#D9D9D9"/>
</mask>
<g mask="url(#mask0_6603_33156)">
<g filter="url(#filter0_f_6603_33156)">
<ellipse cx="655.08" cy="734.63" rx="377.83" ry="237.173" transform="rotate(-1.29156 655.08 734.63)" fill="#FFD099"/>
</g>
<g opacity="0.4" filter="url(#filter1_f_6603_33156)">
<ellipse cx="97.4608" cy="649.163" rx="455.75" ry="387.617" transform="rotate(-11.4171 97.4608 649.163)" fill="#59C3AA"/>
</g>
<g opacity="0.4" filter="url(#filter2_f_6603_33156)">
<path d="M2241.64 436.385C2311.3 576.201 2181.62 759.484 1870.68 926.991C1559.73 1094.5 1156.39 928.672 1086.72 788.856C1017.06 649.04 1429.14 525.214 1673.33 403.538C1917.53 281.863 2171.97 296.569 2241.64 436.385Z" fill="#59C3AA"/>
</g>
</g>
<defs>
<filter id="filter0_f_6603_33156" x="-22.6927" y="197.362" width="1355.55" height="1074.54" filterUnits="userSpaceOnUse" color-interpolation-filters="sRGB">
<feFlood flood-opacity="0" result="BackgroundImageFix"/>
<feBlend mode="normal" in="SourceGraphic" in2="BackgroundImageFix" result="shape"/>
<feGaussianBlur stdDeviation="150" result="effect1_foregroundBlur_6603_33156"/>
</filter>
<filter id="filter1_f_6603_33156" x="-555.886" y="58.5645" width="1306.69" height="1181.2" filterUnits="userSpaceOnUse" color-interpolation-filters="sRGB">
<feFlood flood-opacity="0" result="BackgroundImageFix"/>
<feBlend mode="normal" in="SourceGraphic" in2="BackgroundImageFix" result="shape"/>
<feGaussianBlur stdDeviation="100" result="effect1_foregroundBlur_6603_33156"/>
</filter>
<filter id="filter2_f_6603_33156" x="878.9" y="121.093" width="1581.09" height="1076.36" filterUnits="userSpaceOnUse" color-interpolation-filters="sRGB">
<feFlood flood-opacity="0" result="BackgroundImageFix"/>
<feBlend mode="normal" in="SourceGraphic" in2="BackgroundImageFix" result="shape"/>
<feGaussianBlur stdDeviation="100" result="effect1_foregroundBlur_6603_33156"/>
</filter>
</defs>
</svg>
