<svg width="32" height="32" viewBox="0 0 32 32" fill="none" xmlns="http://www.w3.org/2000/svg">
<g clip-path="url(#clip0_4374_31463)">
<path fill-rule="evenodd" clip-rule="evenodd" d="M9.01733 7.60311C8.57799 7.16377 7.90525 7.12419 7.51473 7.51472C7.12421 7.90524 7.16378 8.57798 7.60312 9.01732L14.5858 16L7.60312 22.9827C7.16378 23.422 7.12421 24.0948 7.51473 24.4853C7.90526 24.8758 8.57799 24.8362 9.01733 24.3969L16 17.4142L22.9827 24.3969C23.422 24.8362 24.0948 24.8758 24.4853 24.4853C24.8758 24.0948 24.8362 23.422 24.3969 22.9827L17.4142 16L24.3969 9.01732C24.8362 8.57798 24.8758 7.90524 24.4853 7.51472C24.0948 7.12419 23.422 7.16377 22.9827 7.60311L16 14.5858L9.01733 7.60311Z" fill="white"/>
</g>
<defs>
<clipPath id="clip0_4374_31463">
<rect width="32" height="32" fill="white"/>
</clipPath>
</defs>
</svg>
