<svg width="80" height="42" viewBox="0 0 80 42" fill="none" xmlns="http://www.w3.org/2000/svg">
<path d="M38.25 5.58771C39.3329 4.9625 40.6671 4.9625 41.75 5.58771L53.3385 12.2783C54.4214 12.9035 55.0885 14.059 55.0885 15.3094V28.6906C55.0885 29.941 54.4214 31.0965 53.3385 31.7217L41.75 38.4123C40.6671 39.0375 39.3329 39.0375 38.25 38.4123L26.6615 31.7217C25.5786 31.0965 24.9115 29.941 24.9115 28.6906V15.3094C24.9115 14.059 25.5786 12.9035 26.6615 12.2783L38.25 5.58771Z" fill="url(#paint0_linear_7231_597)"/>
<path d="M38.25 5.58771C39.3329 4.9625 40.6671 4.9625 41.75 5.58771L53.3385 12.2783C54.4214 12.9035 55.0885 14.059 55.0885 15.3094V28.6906C55.0885 29.941 54.4214 31.0965 53.3385 31.7217L41.75 38.4123C40.6671 39.0375 39.3329 39.0375 38.25 38.4123L26.6615 31.7217C25.5786 31.0965 24.9115 29.941 24.9115 28.6906V15.3094C24.9115 14.059 25.5786 12.9035 26.6615 12.2783L38.25 5.58771Z" stroke="white" stroke-opacity="0.2"/>
<path d="M38.25 5.58771C39.3329 4.9625 40.6671 4.9625 41.75 5.58771L53.3385 12.2783C54.4214 12.9035 55.0885 14.059 55.0885 15.3094V28.6906C55.0885 29.941 54.4214 31.0965 53.3385 31.7217L41.75 38.4123C40.6671 39.0375 39.3329 39.0375 38.25 38.4123L26.6615 31.7217C25.5786 31.0965 24.9115 29.941 24.9115 28.6906V15.3094C24.9115 14.059 25.5786 12.9035 26.6615 12.2783L38.25 5.58771Z" stroke="url(#paint1_linear_7231_597)"/>
<path opacity="0.3" d="M39.25 8.16506C39.7141 7.89711 40.2859 7.89711 40.75 8.16506L51.6064 14.433C52.0705 14.701 52.3564 15.1962 52.3564 15.7321V28.2679C52.3564 28.8038 52.0705 29.299 51.6064 29.567L40.75 35.8349C40.2859 36.1029 39.7141 36.1029 39.25 35.8349L28.3936 29.567C27.9295 29.299 27.6436 28.8038 27.6436 28.268V15.7321C27.6436 15.1962 27.9295 14.701 28.3936 14.433L39.25 8.16506Z" stroke="url(#paint2_linear_7231_597)" stroke-width="3"/>
<path opacity="0.7" d="M38.75 7.29904C39.5235 6.85246 40.4765 6.85246 41.25 7.29904L52.1064 13.567C52.8799 14.0136 53.3564 14.8389 53.3564 15.7321V28.2679C53.3564 29.1611 52.8799 29.9864 52.1064 30.433L41.25 36.701C40.4765 37.1475 39.5235 37.1475 38.75 36.701L27.8936 30.433C27.1201 29.9864 26.6436 29.1611 26.6436 28.268V15.7321C26.6436 14.8389 27.1201 14.0136 27.8936 13.567L38.75 7.29904Z" stroke="url(#paint3_linear_7231_597)"/>
<mask id="path-4-inside-1_7231_597" fill="white">
<path fill-rule="evenodd" clip-rule="evenodd" d="M4.66249 5.43261C3.68398 4.92208 2.7214 6.14008 3.44424 6.97413L12.841 17.8166C12.9455 17.9371 13.0773 18.0309 13.2253 18.0901L21.6286 21.4515C22.2855 21.7142 23 21.2304 23 20.523V15.6062C23 15.2336 22.7929 14.8919 22.4626 14.7196L4.66249 5.43261ZM14.2733 20.5093C13.6634 20.2654 13 20.7145 13 21.3714C13 21.7511 13.2311 22.0925 13.5836 22.2335L21.7267 25.4907C22.3366 25.7346 23 25.2855 23 24.6286C23 24.249 22.7689 23.9075 22.4163 23.7665L14.2733 20.5093Z"/>
</mask>
<path fill-rule="evenodd" clip-rule="evenodd" d="M4.66249 5.43261C3.68398 4.92208 2.7214 6.14008 3.44424 6.97413L12.841 17.8166C12.9455 17.9371 13.0773 18.0309 13.2253 18.0901L21.6286 21.4515C22.2855 21.7142 23 21.2304 23 20.523V15.6062C23 15.2336 22.7929 14.8919 22.4626 14.7196L4.66249 5.43261ZM14.2733 20.5093C13.6634 20.2654 13 20.7145 13 21.3714C13 21.7511 13.2311 22.0925 13.5836 22.2335L21.7267 25.4907C22.3366 25.7346 23 25.2855 23 24.6286C23 24.249 22.7689 23.9075 22.4163 23.7665L14.2733 20.5093Z" fill="url(#paint4_linear_7231_597)"/>
<path d="M3.44424 6.97413L4.19992 6.3192L3.44424 6.97413ZM4.66249 5.43261L5.12506 4.54603L4.66249 5.43261ZM12.841 17.8166L12.0854 18.4715H12.0854L12.841 17.8166ZM13.2253 18.0901L12.8539 19.0186L12.854 19.0186L13.2253 18.0901ZM21.6286 21.4515L21.2572 22.3799H21.2572L21.6286 21.4515ZM22.4626 14.7196L22 15.6062H22L22.4626 14.7196ZM14.2733 20.5093L13.9019 21.4378H13.9019L14.2733 20.5093ZM13.5836 22.2335L13.2123 23.1619H13.2123L13.5836 22.2335ZM21.7267 25.4907L22.0981 24.5622L21.7267 25.4907ZM22.4163 23.7665L22.7877 22.8381L22.7877 22.8381L22.4163 23.7665ZM4.19992 6.3192C4.19257 6.31071 4.18912 6.30528 4.18796 6.30332C4.1868 6.30137 4.18726 6.30178 4.18824 6.30447C4.18922 6.30714 4.19026 6.31083 4.19099 6.31521C4.1917 6.31953 4.19195 6.32355 4.19189 6.32698C4.19177 6.33383 4.19051 6.33599 4.19145 6.33348C4.19249 6.33067 4.1951 6.3253 4.19992 6.3192C4.20475 6.3131 4.20937 6.30931 4.21186 6.30765C4.21409 6.30616 4.21228 6.30788 4.20564 6.30958C4.20232 6.31043 4.19835 6.31112 4.19398 6.31142C4.18955 6.31173 4.18572 6.31157 4.1829 6.31123C4.18005 6.3109 4.17955 6.31055 4.18171 6.31122C4.18388 6.3119 4.18997 6.314 4.19992 6.3192L5.12506 4.54603C3.16802 3.52497 1.24287 5.96098 2.68855 7.62906L4.19992 6.3192ZM13.5967 17.1617L4.19992 6.3192L2.68855 7.62906L12.0854 18.4715L13.5967 17.1617ZM13.5967 17.1617L13.5967 17.1617L12.0854 18.4715C12.2943 18.7126 12.5578 18.9002 12.8539 19.0186L13.5967 17.1617ZM22 20.523L13.5967 17.1617L12.854 19.0186L21.2572 22.3799L22 20.523ZM22 20.523L21.2572 22.3799C22.5709 22.9054 24 21.9379 24 20.523H22ZM22 15.6062V20.523H24V15.6062H22ZM22 15.6062L22 15.6062H24C24 14.8611 23.5858 14.1777 22.9251 13.833L22 15.6062ZM4.19992 6.3192L22 15.6062L22.9251 13.833L5.12506 4.54603L4.19992 6.3192ZM14 21.3714C14 21.3786 13.9975 21.3925 13.9898 21.4065C13.9832 21.4186 13.9753 21.426 13.9686 21.4306C13.9618 21.4352 13.9519 21.4397 13.9383 21.4414C13.9224 21.4433 13.9086 21.4405 13.9019 21.4378L14.6447 19.5809C13.3779 19.0742 12 20.0071 12 21.3714H14ZM13.955 21.305C13.9822 21.3159 14 21.3421 14 21.3714H12C12 22.16 12.4801 22.8691 13.2123 23.1619L13.955 21.305ZM22.0981 24.5622L13.955 21.305L13.2123 23.1619L21.3553 26.4192L22.0981 24.5622ZM22 24.6286C22 24.6214 22.0025 24.6075 22.0102 24.5935C22.0168 24.5815 22.0247 24.574 22.0314 24.5694C22.0382 24.5648 22.048 24.5603 22.0617 24.5586C22.0776 24.5567 22.0914 24.5595 22.0981 24.5622L21.3553 26.4192C22.6221 26.9259 24 25.9929 24 24.6286H22ZM22.045 24.695C22.0178 24.6842 22 24.6579 22 24.6286H24C24 23.84 23.5199 23.1309 22.7877 22.8381L22.045 24.695ZM13.9019 21.4378L22.045 24.695L22.7877 22.8381L14.6447 19.5809L13.9019 21.4378Z" fill="url(#paint5_linear_7231_597)" fill-opacity="0.1" mask="url(#path-4-inside-1_7231_597)"/>
<path d="M76.5558 6.97412C77.2786 6.14008 76.316 4.92208 75.3375 5.4326L57.5374 14.7196C57.2071 14.8919 57 15.2336 57 15.6062V20.523C57 21.2304 57.7145 21.7142 58.3714 21.4514L66.7747 18.0901C66.9227 18.0309 67.0545 17.9371 67.159 17.8166L76.5558 6.97412Z" fill="url(#paint6_linear_7231_597)"/>
<path d="M76.1779 6.64666C76.5393 6.22963 76.058 5.62063 75.5688 5.8759L57.7687 15.1629C57.6036 15.2491 57.5 15.4199 57.5 15.6062V20.523C57.5 20.8767 57.8573 21.1186 58.1857 20.9872L66.589 17.6259L66.7747 18.0901L66.589 17.6259C66.663 17.5963 66.7289 17.5494 66.7811 17.4891L76.1779 6.64666Z" stroke="url(#paint7_linear_7231_597)" stroke-opacity="0.1"/>
<path d="M67 21.3714C67 20.7145 66.3366 20.2654 65.7267 20.5093L57.5836 23.7665C57.2311 23.9075 57 24.249 57 24.6286C57 25.2855 57.6634 25.7346 58.2733 25.4907L66.4164 22.2335C66.7689 22.0925 67 21.751 67 21.3714Z" fill="url(#paint8_linear_7231_597)"/>
<path d="M66.5 21.3714C66.5 21.0683 66.1938 20.861 65.9124 20.9736L57.7693 24.2308C57.6067 24.2958 57.5 24.4534 57.5 24.6286C57.5 24.9317 57.8062 25.139 58.0876 25.0264L66.2307 21.7692C66.3933 21.7042 66.5 21.5466 66.5 21.3714Z" stroke="url(#paint9_linear_7231_597)" stroke-opacity="0.1"/>
<g filter="url(#filter0_f_7231_597)">
<circle cx="43.5" cy="23.5" r="4.5" fill="#44098E"/>
</g>
<g filter="url(#filter1_d_7231_597)">
<path d="M40.5151 26.0313C42.1633 26.0313 43.3155 25.1996 43.9718 23.5361L46.3525 24.4518C45.8336 25.7185 45.0782 26.657 44.0862 27.2675C43.0942 27.8779 41.9039 28.1831 40.5151 28.1831C38.4091 28.1831 36.7838 27.588 35.6392 26.3976C34.4946 25.2072 33.9224 23.5438 33.9224 21.4072C33.9224 19.2554 34.4718 17.6072 35.5705 16.4627C36.6846 15.3028 38.2946 14.7229 40.4007 14.7229C41.942 14.7229 43.1934 15.0357 44.1549 15.6614C45.1163 16.2719 45.7878 17.1723 46.1693 18.3627L43.7657 19.0265C43.5673 18.3703 43.1629 17.8514 42.5525 17.4699C41.9573 17.0731 41.2553 16.8747 40.4465 16.8747C39.2103 16.8747 38.2718 17.2639 37.6308 18.0422C36.9898 18.8052 36.6693 19.9269 36.6693 21.4072C36.6693 22.9028 36.9975 24.0474 37.6537 24.841C38.3252 25.6345 39.279 26.0313 40.5151 26.0313Z" fill="url(#paint10_linear_7231_597)" shape-rendering="crispEdges"/>
</g>
<mask id="mask0_7231_597" style="mask-type:alpha" maskUnits="userSpaceOnUse" x="24" y="4" width="32" height="36">
<path d="M38 5.1547C39.2376 4.44017 40.7624 4.44017 42 5.1547L53.5885 11.8453C54.8261 12.5598 55.5885 13.8803 55.5885 15.3094V28.6906C55.5885 30.1197 54.8261 31.4402 53.5885 32.1547L42 38.8453C40.7624 39.5598 39.2376 39.5598 38 38.8453L26.4115 32.1547C25.1739 31.4402 24.4115 30.1197 24.4115 28.6906V15.3094C24.4115 13.8803 25.1739 12.5598 26.4115 11.8453L38 5.1547Z" fill="url(#paint11_linear_7231_597)"/>
<path d="M38.25 5.58771C39.3329 4.9625 40.6671 4.9625 41.75 5.58771L53.3385 12.2783C54.4214 12.9035 55.0885 14.059 55.0885 15.3094V28.6906C55.0885 29.941 54.4214 31.0965 53.3385 31.7217L41.75 38.4123C40.6671 39.0375 39.3329 39.0375 38.25 38.4123L26.6615 31.7217C25.5786 31.0965 24.9115 29.941 24.9115 28.6906V15.3094C24.9115 14.059 25.5786 12.9035 26.6615 12.2783L38.25 5.58771Z" stroke="white" stroke-opacity="0.4"/>
</mask>
<g mask="url(#mask0_7231_597)">
<g style="mix-blend-mode:lighten" opacity="0.3" filter="url(#filter2_f_7231_597)">
<ellipse cx="34.1439" cy="8.07787" rx="11.0411" ry="3.08001" transform="rotate(-29.1291 34.1439 8.07787)" fill="white"/>
</g>
<g style="mix-blend-mode:lighten" opacity="0.2" filter="url(#filter3_f_7231_597)">
<path d="M55.2259 27.1998C55.9029 28.4148 52.247 29.7236 47.0423 32.6239C41.8376 35.5243 37.0552 38.9178 36.3781 37.7029C35.7011 36.488 39.3715 33.1519 44.5761 30.2515C49.7808 27.3512 54.5488 25.9849 55.2259 27.1998Z" fill="white"/>
</g>
</g>
<defs>
<filter id="filter0_f_7231_597" x="29" y="9" width="29" height="29" filterUnits="userSpaceOnUse" color-interpolation-filters="sRGB">
<feFlood flood-opacity="0" result="BackgroundImageFix"/>
<feBlend mode="normal" in="SourceGraphic" in2="BackgroundImageFix" result="shape"/>
<feGaussianBlur stdDeviation="5" result="effect1_foregroundBlur_7231_597"/>
</filter>
<filter id="filter1_d_7231_597" x="31.9224" y="13.7229" width="16.4301" height="17.4602" filterUnits="userSpaceOnUse" color-interpolation-filters="sRGB">
<feFlood flood-opacity="0" result="BackgroundImageFix"/>
<feColorMatrix in="SourceAlpha" type="matrix" values="0 0 0 0 0 0 0 0 0 0 0 0 0 0 0 0 0 0 127 0" result="hardAlpha"/>
<feOffset dy="1"/>
<feGaussianBlur stdDeviation="1"/>
<feComposite in2="hardAlpha" operator="out"/>
<feColorMatrix type="matrix" values="0 0 0 0 0.193195 0 0 0 0 0.0307465 0 0 0 0 0.320833 0 0 0 0.3 0"/>
<feBlend mode="normal" in2="BackgroundImageFix" result="effect1_dropShadow_7231_597"/>
<feBlend mode="normal" in="SourceGraphic" in2="effect1_dropShadow_7231_597" result="shape"/>
</filter>
<filter id="filter2_f_7231_597" x="21.382" y="-0.933838" width="25.5238" height="18.0234" filterUnits="userSpaceOnUse" color-interpolation-filters="sRGB">
<feFlood flood-opacity="0" result="BackgroundImageFix"/>
<feBlend mode="normal" in="SourceGraphic" in2="BackgroundImageFix" result="shape"/>
<feGaussianBlur stdDeviation="1.5" result="effect1_foregroundBlur_7231_597"/>
</filter>
<filter id="filter3_f_7231_597" x="32.2977" y="22.7562" width="27.0089" height="19.2001" filterUnits="userSpaceOnUse" color-interpolation-filters="sRGB">
<feFlood flood-opacity="0" result="BackgroundImageFix"/>
<feBlend mode="normal" in="SourceGraphic" in2="BackgroundImageFix" result="shape"/>
<feGaussianBlur stdDeviation="2" result="effect1_foregroundBlur_7231_597"/>
</filter>
<linearGradient id="paint0_linear_7231_597" x1="40" y1="4" x2="40" y2="40" gradientUnits="userSpaceOnUse">
<stop stop-color="#9F62E4"/>
<stop offset="0.447917" stop-color="#9B54BE"/>
<stop offset="1" stop-color="#6117C2"/>
</linearGradient>
<linearGradient id="paint1_linear_7231_597" x1="40" y1="4" x2="40" y2="40" gradientUnits="userSpaceOnUse">
<stop stop-color="#DC959B" stop-opacity="0.21"/>
<stop offset="0.557292" stop-color="#DC959B" stop-opacity="0"/>
</linearGradient>
<linearGradient id="paint2_linear_7231_597" x1="40" y1="6" x2="40" y2="38" gradientUnits="userSpaceOnUse">
<stop stop-color="#3F0688"/>
<stop offset="1" stop-color="#4F15B5"/>
</linearGradient>
<linearGradient id="paint3_linear_7231_597" x1="40" y1="6" x2="40" y2="38" gradientUnits="userSpaceOnUse">
<stop stop-color="#3F0688"/>
<stop offset="1" stop-color="#4F15B5"/>
</linearGradient>
<linearGradient id="paint4_linear_7231_597" x1="13.0959" y1="5.31158" x2="13.0959" y2="25.558" gradientUnits="userSpaceOnUse">
<stop stop-color="#9F62E4"/>
<stop offset="0.447917" stop-color="#9B54BE"/>
<stop offset="1" stop-color="#6117C2"/>
</linearGradient>
<linearGradient id="paint5_linear_7231_597" x1="13.0959" y1="5.31158" x2="13.0959" y2="25.558" gradientUnits="userSpaceOnUse">
<stop stop-color="white"/>
<stop offset="1" stop-color="white" stop-opacity="0"/>
</linearGradient>
<linearGradient id="paint6_linear_7231_597" x1="68.5" y1="3" x2="68.5" y2="22" gradientUnits="userSpaceOnUse">
<stop stop-color="#9F62E4"/>
<stop offset="0.447917" stop-color="#9B54BE"/>
<stop offset="1" stop-color="#6117C2"/>
</linearGradient>
<linearGradient id="paint7_linear_7231_597" x1="62" y1="11" x2="62" y2="22" gradientUnits="userSpaceOnUse">
<stop stop-color="white"/>
<stop offset="1" stop-color="white" stop-opacity="0"/>
</linearGradient>
<linearGradient id="paint8_linear_7231_597" x1="62" y1="20" x2="62" y2="26" gradientUnits="userSpaceOnUse">
<stop stop-color="#9F62E4"/>
<stop offset="0.447917" stop-color="#9B54BE"/>
<stop offset="1" stop-color="#6117C2"/>
</linearGradient>
<linearGradient id="paint9_linear_7231_597" x1="62" y1="20" x2="62" y2="26" gradientUnits="userSpaceOnUse">
<stop stop-color="white"/>
<stop offset="1" stop-color="white" stop-opacity="0"/>
</linearGradient>
<linearGradient id="paint10_linear_7231_597" x1="40" y1="13.8" x2="40" y2="30.6" gradientUnits="userSpaceOnUse">
<stop stop-color="white"/>
<stop offset="1" stop-color="white" stop-opacity="0"/>
<stop offset="1" stop-color="#FFE2C8"/>
</linearGradient>
<linearGradient id="paint11_linear_7231_597" x1="40" y1="4" x2="40" y2="40" gradientUnits="userSpaceOnUse">
<stop stop-color="#FFD967"/>
<stop offset="0.510417" stop-color="#FFD336"/>
<stop offset="1" stop-color="#FF8A1F"/>
</linearGradient>
</defs>
</svg>
