<svg width="80" height="42" viewBox="0 0 80 42" fill="none" xmlns="http://www.w3.org/2000/svg">
<path d="M38 5.1547C39.2376 4.44017 40.7624 4.44017 42 5.1547L53.5885 11.8453C54.8261 12.5598 55.5885 13.8803 55.5885 15.3094V28.6906C55.5885 30.1197 54.8261 31.4402 53.5885 32.1547L42 38.8453C40.7624 39.5598 39.2376 39.5598 38 38.8453L26.4115 32.1547C25.1739 31.4402 24.4115 30.1197 24.4115 28.6906V15.3094C24.4115 13.8803 25.1739 12.5598 26.4115 11.8453L38 5.1547Z" fill="url(#paint0_linear_2962_4129)"/>
<path d="M41.75 5.58771L53.3385 12.2783C54.4214 12.9035 55.0885 14.059 55.0885 15.3094V28.6906C55.0885 29.941 54.4214 31.0965 53.3385 31.7217L41.75 38.4123C40.6671 39.0375 39.3329 39.0375 38.25 38.4123L26.6615 31.7217C25.5786 31.0965 24.9115 29.941 24.9115 28.6906V15.3094C24.9115 14.059 25.5786 12.9035 26.6615 12.2783L38.25 5.58771C39.3329 4.9625 40.6671 4.9625 41.75 5.58771Z" stroke="white" stroke-opacity="0.4"/>
<path d="M41.75 5.58771L53.3385 12.2783C54.4214 12.9035 55.0885 14.059 55.0885 15.3094V28.6906C55.0885 29.941 54.4214 31.0965 53.3385 31.7217L41.75 38.4123C40.6671 39.0375 39.3329 39.0375 38.25 38.4123L26.6615 31.7217C25.5786 31.0965 24.9115 29.941 24.9115 28.6906V15.3094C24.9115 14.059 25.5786 12.9035 26.6615 12.2783L38.25 5.58771C39.3329 4.9625 40.6671 4.9625 41.75 5.58771Z" stroke="url(#paint1_linear_2962_4129)" stroke-opacity="0.2"/>
<path opacity="0.3" d="M40.75 8.16506L51.6064 14.433C52.0705 14.701 52.3564 15.1962 52.3564 15.7321V28.2679C52.3564 28.8038 52.0705 29.299 51.6064 29.567L40.75 35.8349C40.2859 36.1029 39.7141 36.1029 39.25 35.8349L28.3936 29.567C27.9295 29.299 27.6436 28.8038 27.6436 28.268V15.7321C27.6436 15.1962 27.9295 14.701 28.3936 14.433L39.25 8.16506C39.7141 7.89711 40.2859 7.89711 40.75 8.16506Z" stroke="url(#paint2_linear_2962_4129)" stroke-width="3"/>
<path opacity="0.7" d="M41.25 7.29904L52.1064 13.567C52.8799 14.0136 53.3564 14.8389 53.3564 15.7321V28.2679C53.3564 29.1611 52.8799 29.9864 52.1064 30.433L41.25 36.701C40.4765 37.1475 39.5235 37.1475 38.75 36.701L27.8936 30.433C27.1201 29.9864 26.6436 29.1611 26.6436 28.268V15.7321C26.6436 14.8389 27.1201 14.0136 27.8936 13.567L38.75 7.29904C39.5235 6.85246 40.4765 6.85246 41.25 7.29904Z" stroke="url(#paint3_linear_2962_4129)"/>
<mask id="path-5-inside-1_2962_4129" fill="white">
<path fill-rule="evenodd" clip-rule="evenodd" d="M23 15.6061C23 15.2336 22.7929 14.8919 22.4626 14.7195L4.66249 5.43255C3.68398 4.92202 2.7214 6.14002 3.44424 6.97407L12.841 17.8165C12.9455 17.9371 13.0773 18.0309 13.2253 18.0901L21.6286 21.4514C22.2855 21.7141 23 21.2304 23 20.5229V15.6061ZM23 24.6286C23 24.2489 22.7689 23.9075 22.4163 23.7665L14.2733 20.5093C13.6634 20.2653 13 20.7145 13 21.3713V21.3713C13 21.751 13.2311 22.0924 13.5836 22.2334L21.7267 25.4906C22.3366 25.7346 23 25.2854 23 24.6286V24.6286Z"/>
</mask>
<path fill-rule="evenodd" clip-rule="evenodd" d="M23 15.6061C23 15.2336 22.7929 14.8919 22.4626 14.7195L4.66249 5.43255C3.68398 4.92202 2.7214 6.14002 3.44424 6.97407L12.841 17.8165C12.9455 17.9371 13.0773 18.0309 13.2253 18.0901L21.6286 21.4514C22.2855 21.7141 23 21.2304 23 20.5229V15.6061ZM23 24.6286C23 24.2489 22.7689 23.9075 22.4163 23.7665L14.2733 20.5093C13.6634 20.2653 13 20.7145 13 21.3713V21.3713C13 21.751 13.2311 22.0924 13.5836 22.2334L21.7267 25.4906C22.3366 25.7346 23 25.2854 23 24.6286V24.6286Z" fill="url(#paint4_linear_2962_4129)"/>
<path d="M21.7267 25.4906L21.3553 26.4191L21.7267 25.4906ZM13.5836 22.2334L13.2123 23.1619L13.5836 22.2334ZM22.4163 23.7665L22.7877 22.838L22.4163 23.7665ZM14.2733 20.5093L13.9019 21.4377L14.2733 20.5093ZM21.6286 21.4514L21.2572 22.3799L21.6286 21.4514ZM12.841 17.8165L12.0854 18.4715L12.841 17.8165ZM13.2253 18.0901L13.5967 17.1616L13.2253 18.0901ZM22.4626 14.7195L22.9251 13.833L22.4626 14.7195ZM4.19992 6.31913L22 15.6061L22.9251 13.833L5.12506 4.54597L4.19992 6.31913ZM13.5967 17.1616L4.19992 6.31914L2.68855 7.629L12.0854 18.4715L13.5967 17.1616ZM22 20.5229L13.5967 17.1616L12.854 19.0186L21.2572 22.3799L22 20.5229ZM22 15.6061V20.5229H24V15.6061H22ZM13.9019 21.4377L22.045 24.695L22.7877 22.838L14.6447 19.5808L13.9019 21.4377ZM22.0981 24.5621L13.955 21.3049L13.2123 23.1619L21.3553 26.4191L22.0981 24.5621ZM21.3553 26.4191C22.622 26.9258 24 25.9929 24 24.6286H22C22 24.6214 22.0025 24.6075 22.0102 24.5935C22.0168 24.5814 22.0247 24.5739 22.0314 24.5693C22.0382 24.5648 22.048 24.5603 22.0617 24.5586C22.0776 24.5567 22.0914 24.5595 22.0981 24.5621L21.3553 26.4191ZM12 21.3713C12 22.1599 12.4801 22.869 13.2123 23.1619L13.955 21.3049C13.9822 21.3158 14 21.3421 14 21.3713H12ZM22.045 24.695C22.0178 24.6841 22 24.6578 22 24.6286H24C24 23.84 23.5199 23.1309 22.7877 22.838L22.045 24.695ZM14.6447 19.5808C13.3779 19.0741 12 20.007 12 21.3713H14C14 21.3785 13.9975 21.3924 13.9898 21.4064C13.9832 21.4185 13.9753 21.426 13.9686 21.4306C13.9618 21.4351 13.9519 21.4396 13.9383 21.4413C13.9224 21.4432 13.9086 21.4404 13.9019 21.4377L14.6447 19.5808ZM21.2572 22.3799C22.5709 22.9054 24 21.9378 24 20.5229H22L21.2572 22.3799ZM12.0854 18.4715C12.2943 18.7125 12.5578 18.9001 12.854 19.0186L13.5967 17.1616L12.0854 18.4715ZM22 15.6061H24C24 14.861 23.5858 14.1776 22.9251 13.833L22 15.6061ZM5.12506 4.54597C3.16802 3.5249 1.24287 5.96091 2.68855 7.629L4.19992 6.31914C4.19257 6.31065 4.18912 6.30522 4.18796 6.30325C4.1868 6.30131 4.18726 6.30172 4.18824 6.30441C4.18922 6.30708 4.19026 6.31077 4.19099 6.31514C4.1917 6.31947 4.19195 6.32349 4.19189 6.32692C4.19177 6.33377 4.19051 6.33593 4.19145 6.33342C4.19249 6.3306 4.1951 6.32524 4.19992 6.31913C4.20475 6.31303 4.20937 6.30925 4.21186 6.30759C4.21409 6.3061 4.21228 6.30782 4.20564 6.30952C4.20232 6.31036 4.19835 6.31106 4.19398 6.31136C4.18955 6.31167 4.18572 6.3115 4.1829 6.31117C4.18005 6.31084 4.17955 6.31049 4.18171 6.31116C4.18388 6.31184 4.18997 6.31394 4.19992 6.31913L5.12506 4.54597Z" fill="url(#paint5_linear_2962_4129)" fill-opacity="0.4" mask="url(#path-5-inside-1_2962_4129)"/>
<path d="M76.5558 6.97412C77.2786 6.14008 76.316 4.92208 75.3375 5.4326L57.5374 14.7196C57.2071 14.8919 57 15.2336 57 15.6062V20.523C57 21.2304 57.7145 21.7142 58.3714 21.4514L66.7747 18.0901C66.9227 18.0309 67.0545 17.9371 67.159 17.8166L76.5558 6.97412Z" fill="url(#paint6_linear_2962_4129)"/>
<path d="M75.5688 5.8759L57.7687 15.1629C57.6036 15.2491 57.5 15.4199 57.5 15.6062V20.523C57.5 20.8767 57.8573 21.1186 58.1857 20.9872L66.589 17.6259C66.663 17.5963 66.7289 17.5494 66.7811 17.4891L76.1779 6.64666C76.5393 6.22963 76.058 5.62064 75.5688 5.8759Z" stroke="url(#paint7_linear_2962_4129)" stroke-opacity="0.4"/>
<path d="M67 21.3714C67 20.7145 66.3366 20.2654 65.7267 20.5093L57.5836 23.7665C57.2311 23.9075 57 24.249 57 24.6286V24.6286C57 25.2855 57.6634 25.7346 58.2733 25.4907L66.4164 22.2335C66.7689 22.0925 67 21.751 67 21.3714V21.3714Z" fill="url(#paint8_linear_2962_4129)"/>
<path d="M65.9124 20.9736L57.7693 24.2308C57.6067 24.2958 57.5 24.4534 57.5 24.6286C57.5 24.9317 57.8062 25.139 58.0876 25.0264L66.2307 21.7692C66.3933 21.7042 66.5 21.5466 66.5 21.3714C66.5 21.0683 66.1938 20.861 65.9124 20.9736Z" stroke="url(#paint9_linear_2962_4129)" stroke-opacity="0.4"/>
<g filter="url(#filter0_f_2962_4129)">
<circle cx="43.5" cy="23.5" r="4.5" fill="#C43434"/>
</g>
<g filter="url(#filter1_d_2962_4129)">
<path d="M43.6513 28L42.5067 24.6578H37.5163L36.3489 28H33.6248L38.3862 14.9289H41.6139L46.3754 28H43.6513ZM39.9886 16.9434L39.9428 17.1494C39.8818 17.3783 39.8055 17.6378 39.7139 17.9277C39.6376 18.2024 39.1111 19.759 38.1344 22.5976H41.8886L40.5838 18.8434L40.1946 17.5843L39.9886 16.9434Z" fill="url(#paint10_linear_2962_4129)" shape-rendering="crispEdges"/>
</g>
<mask id="mask0_2962_4129" style="mask-type:alpha" maskUnits="userSpaceOnUse" x="24" y="4" width="32" height="36">
<path d="M38 5.1547C39.2376 4.44017 40.7624 4.44017 42 5.1547L53.5885 11.8453C54.8261 12.5598 55.5885 13.8803 55.5885 15.3094V28.6906C55.5885 30.1197 54.8261 31.4402 53.5885 32.1547L42 38.8453C40.7624 39.5598 39.2376 39.5598 38 38.8453L26.4115 32.1547C25.1739 31.4402 24.4115 30.1197 24.4115 28.6906V15.3094C24.4115 13.8803 25.1739 12.5598 26.4115 11.8453L38 5.1547Z" fill="url(#paint11_linear_2962_4129)"/>
<path d="M41.75 5.58771L53.3385 12.2783C54.4214 12.9035 55.0885 14.059 55.0885 15.3094V28.6906C55.0885 29.941 54.4214 31.0965 53.3385 31.7217L41.75 38.4123C40.6671 39.0375 39.3329 39.0375 38.25 38.4123L26.6615 31.7217C25.5786 31.0965 24.9115 29.941 24.9115 28.6906V15.3094C24.9115 14.059 25.5786 12.9035 26.6615 12.2783L38.25 5.58771C39.3329 4.9625 40.6671 4.9625 41.75 5.58771Z" stroke="white" stroke-opacity="0.4"/>
</mask>
<g mask="url(#mask0_2962_4129)">
<g style="mix-blend-mode:lighten" opacity="0.5" filter="url(#filter2_f_2962_4129)">
<ellipse cx="34.1439" cy="8.07787" rx="11.0411" ry="3.08001" transform="rotate(-29.1291 34.1439 8.07787)" fill="white"/>
</g>
<g style="mix-blend-mode:lighten" opacity="0.2" filter="url(#filter3_f_2962_4129)">
<path d="M55.226 27.1997C55.903 28.4146 52.2471 29.7235 47.0424 32.6238C41.8377 35.5241 37.0553 38.9177 36.3782 37.7028C35.7012 36.4878 39.3716 33.1517 44.5762 30.2514C49.7809 27.3511 54.5489 25.9848 55.226 27.1997Z" fill="white"/>
</g>
</g>
<defs>
<filter id="filter0_f_2962_4129" x="29" y="9" width="29" height="29" filterUnits="userSpaceOnUse" color-interpolation-filters="sRGB">
<feFlood flood-opacity="0" result="BackgroundImageFix"/>
<feBlend mode="normal" in="SourceGraphic" in2="BackgroundImageFix" result="shape"/>
<feGaussianBlur stdDeviation="5" result="effect1_foregroundBlur_2962_4129"/>
</filter>
<filter id="filter1_d_2962_4129" x="31.6248" y="13.929" width="16.7507" height="17.071" filterUnits="userSpaceOnUse" color-interpolation-filters="sRGB">
<feFlood flood-opacity="0" result="BackgroundImageFix"/>
<feColorMatrix in="SourceAlpha" type="matrix" values="0 0 0 0 0 0 0 0 0 0 0 0 0 0 0 0 0 0 127 0" result="hardAlpha"/>
<feOffset dy="1"/>
<feGaussianBlur stdDeviation="1"/>
<feComposite in2="hardAlpha" operator="out"/>
<feColorMatrix type="matrix" values="0 0 0 0 0.608333 0 0 0 0 0.249924 0 0 0 0 0.0963194 0 0 0 0.3 0"/>
<feBlend mode="normal" in2="BackgroundImageFix" result="effect1_dropShadow_2962_4129"/>
<feBlend mode="normal" in="SourceGraphic" in2="effect1_dropShadow_2962_4129" result="shape"/>
</filter>
<filter id="filter2_f_2962_4129" x="21.3821" y="-0.933838" width="25.5237" height="18.0234" filterUnits="userSpaceOnUse" color-interpolation-filters="sRGB">
<feFlood flood-opacity="0" result="BackgroundImageFix"/>
<feBlend mode="normal" in="SourceGraphic" in2="BackgroundImageFix" result="shape"/>
<feGaussianBlur stdDeviation="1.5" result="effect1_foregroundBlur_2962_4129"/>
</filter>
<filter id="filter3_f_2962_4129" x="32.2979" y="22.7561" width="27.0088" height="19.2002" filterUnits="userSpaceOnUse" color-interpolation-filters="sRGB">
<feFlood flood-opacity="0" result="BackgroundImageFix"/>
<feBlend mode="normal" in="SourceGraphic" in2="BackgroundImageFix" result="shape"/>
<feGaussianBlur stdDeviation="2" result="effect1_foregroundBlur_2962_4129"/>
</filter>
<linearGradient id="paint0_linear_2962_4129" x1="40" y1="4" x2="40" y2="40" gradientUnits="userSpaceOnUse">
<stop stop-color="#FFD967"/>
<stop offset="0.510417" stop-color="#FFD336"/>
<stop offset="1" stop-color="#FF8A1F"/>
</linearGradient>
<linearGradient id="paint1_linear_2962_4129" x1="40" y1="4" x2="40" y2="40" gradientUnits="userSpaceOnUse">
<stop stop-color="#F9B5FF" stop-opacity="0.56"/>
<stop offset="0.536458" stop-color="#F689FF" stop-opacity="0"/>
</linearGradient>
<linearGradient id="paint2_linear_2962_4129" x1="40" y1="6" x2="40" y2="38" gradientUnits="userSpaceOnUse">
<stop stop-color="#BF7800"/>
<stop offset="1" stop-color="#B05200"/>
</linearGradient>
<linearGradient id="paint3_linear_2962_4129" x1="40" y1="6" x2="40" y2="38" gradientUnits="userSpaceOnUse">
<stop stop-color="#BF7800"/>
<stop offset="1" stop-color="#B05200"/>
</linearGradient>
<linearGradient id="paint4_linear_2962_4129" x1="13.0959" y1="5.31152" x2="13.0959" y2="25.5579" gradientUnits="userSpaceOnUse">
<stop stop-color="#FFD967"/>
<stop offset="0.510417" stop-color="#FFD336"/>
<stop offset="1" stop-color="#FF8A1F"/>
</linearGradient>
<linearGradient id="paint5_linear_2962_4129" x1="13.0959" y1="5.31152" x2="13.0959" y2="25.5579" gradientUnits="userSpaceOnUse">
<stop stop-color="white"/>
<stop offset="1" stop-color="white" stop-opacity="0"/>
</linearGradient>
<linearGradient id="paint6_linear_2962_4129" x1="68.5" y1="3" x2="68.5" y2="22" gradientUnits="userSpaceOnUse">
<stop stop-color="#FFD967"/>
<stop offset="0.510417" stop-color="#FFD336"/>
<stop offset="1" stop-color="#FF8A1F"/>
</linearGradient>
<linearGradient id="paint7_linear_2962_4129" x1="62" y1="11" x2="62" y2="22" gradientUnits="userSpaceOnUse">
<stop stop-color="white"/>
<stop offset="1" stop-color="white" stop-opacity="0"/>
</linearGradient>
<linearGradient id="paint8_linear_2962_4129" x1="62" y1="20" x2="62" y2="26" gradientUnits="userSpaceOnUse">
<stop stop-color="#FFD967"/>
<stop offset="0.510417" stop-color="#FFD336"/>
<stop offset="1" stop-color="#FF8A1F"/>
</linearGradient>
<linearGradient id="paint9_linear_2962_4129" x1="62" y1="20" x2="62" y2="26" gradientUnits="userSpaceOnUse">
<stop stop-color="white"/>
<stop offset="1" stop-color="white" stop-opacity="0"/>
</linearGradient>
<linearGradient id="paint10_linear_2962_4129" x1="40" y1="13.8" x2="40" y2="30.6" gradientUnits="userSpaceOnUse">
<stop stop-color="white"/>
<stop offset="1" stop-color="white" stop-opacity="0"/>
<stop offset="1" stop-color="#FFE2C8"/>
</linearGradient>
<linearGradient id="paint11_linear_2962_4129" x1="40" y1="4" x2="40" y2="40" gradientUnits="userSpaceOnUse">
<stop stop-color="#FFD967"/>
<stop offset="0.510417" stop-color="#FFD336"/>
<stop offset="1" stop-color="#FF8A1F"/>
</linearGradient>
</defs>
</svg>
