<svg width="1920" height="340" viewBox="0 0 1920 340" fill="none" xmlns="http://www.w3.org/2000/svg">
<path fill-rule="evenodd" clip-rule="evenodd" d="M126.435 557.975C-139.889 144.552 -78.1748 -407.455 292.921 -736.009C702.395 -1098.54 1333.43 -1051.67 1702.39 -631.397C2071.34 -211.12 2038.55 423.476 1629.08 786.009C1219.61 1148.54 588.567 1101.67 219.611 681.397C185.383 642.407 154.612 601.573 127.279 559.282C117.846 566.549 108.54 574.102 99.3701 581.95L98.362 580.772C107.586 572.878 116.946 565.281 126.435 557.975ZM1700.83 -630.019C2069.06 -210.571 2036.29 422.704 1627.71 784.447C1219.13 1146.19 589.395 1099.47 221.167 680.019C186.97 641.065 156.232 600.267 128.932 558.013C139.102 550.227 149.419 542.773 159.873 535.641C187.559 579.552 219.069 621.879 254.426 662.154C607.94 1064.84 1212.22 1110.05 1604.14 763.066C1996.05 416.081 2027.13 -191.652 1673.61 -594.339C1320.1 -997.025 715.816 -1042.24 323.901 -695.251C48.5295 -451.448 -48.698 -78.915 40.4563 260.77C36.0465 261.343 31.6582 261.945 27.2923 262.577L27.5142 264.111C31.9382 263.471 36.3852 262.862 40.8544 262.282C65.7904 356.677 105.129 448.516 159.046 534.327C148.587 541.462 138.265 548.918 128.088 556.706C-137.602 144.125 -75.954 -406.645 294.292 -734.446C702.874 -1096.19 1332.61 -1049.47 1700.83 -630.019ZM161.518 534.521C189.157 578.363 220.615 620.623 255.917 660.834C608.734 1062.73 1211.77 1107.8 1602.83 761.57C1993.88 415.343 2024.94 -191.126 1672.12 -593.019C1319.31 -994.913 716.273 -1039.98 325.215 -693.755C50.3748 -450.423 -46.645 -78.5466 42.4425 260.514C55.9744 258.784 69.7078 257.325 83.6208 256.123C65.135 184.868 55.2124 112.131 53.771 39.5416C50.4636 39.5331 47.1896 39.556 43.9495 39.6105L43.9233 38.0602C47.1625 38.0057 50.4355 37.9827 53.7415 37.991C49.0681 -218.892 150.608 -473.783 354.73 -654.505C729.085 -985.943 1306.65 -942.352 1644.76 -557.212C1982.87 -172.071 1953.54 408.835 1579.19 740.274C1204.83 1071.71 627.271 1028.12 289.161 642.981C253.19 602.007 221.378 558.817 193.698 513.948C182.84 520.484 172.109 527.339 161.518 534.521ZM55.6401 37.9991C50.9657 -218.367 152.299 -472.739 355.986 -653.075C729.52 -983.788 1305.89 -940.335 1643.33 -555.95C1972.08 -181.479 1952.74 378.362 1606.14 712.769L1583.16 690.519C1912.14 371.02 1929.69 -162.272 1616.44 -519.63C1617.86 -520.337 1619.28 -521.04 1620.71 -521.74L1620.03 -523.132C1618.47 -522.371 1616.92 -521.605 1615.38 -520.835C1292.63 -887.756 742.285 -929.445 385.711 -613.748C303.399 -540.872 238.607 -455.322 191.594 -362.311C183.638 -366.293 175.943 -369.991 168.518 -373.397L167.872 -371.988C175.279 -368.589 182.957 -364.899 190.896 -360.927C161.124 -301.758 138.536 -239.584 123.199 -175.746C109.822 -179.607 97.2757 -182.817 85.5917 -185.359L85.2621 -183.844C96.9327 -181.304 109.469 -178.097 122.838 -174.236C106.161 -104.272 98.1861 -32.3225 99.0008 39.8524C84.0037 38.7128 69.5331 38.0836 55.6401 37.9991ZM192.517 -360.114C162.795 -301.045 140.248 -238.974 124.941 -175.24C138.595 -171.263 153.103 -166.613 168.432 -161.307C183.425 -222.245 205.381 -281.544 234.238 -337.912C219.641 -346.058 205.722 -353.472 192.517 -360.114ZM235.745 -337.069C206.94 -280.791 185.026 -221.584 170.069 -160.739C183.759 -155.977 198.098 -150.696 213.062 -144.906C227.584 -203.071 248.804 -259.63 276.664 -313.33C262.501 -321.809 248.852 -329.732 235.745 -337.069ZM277.381 -314.708C263.216 -323.187 249.565 -331.11 236.453 -338.449C271.705 -406.995 317.198 -471.173 372.816 -528.641C381.846 -518.157 392.763 -505.87 405.37 -491.972C353.371 -438.355 310.674 -378.564 277.381 -314.708ZM406.474 -490.756C354.598 -437.252 312.002 -377.586 278.788 -313.865C291.882 -306.012 305.411 -297.687 319.354 -288.914C350.798 -348.586 390.965 -404.446 439.765 -454.555C427.674 -467.567 416.544 -479.666 406.474 -490.756ZM440.849 -455.665C428.755 -468.682 417.624 -480.782 407.556 -491.87C420.65 -505.32 434.332 -518.379 448.601 -531.012C761.009 -807.605 1239.53 -778.476 1533.4 -470.791C1521.14 -461.673 1509.54 -452.156 1498.59 -442.243C1219.1 -726.028 771.527 -750.921 478.501 -491.488C465.429 -479.915 452.878 -467.964 440.849 -455.665ZM440.822 -453.418C392.124 -403.404 352.043 -347.648 320.67 -288.086C332.418 -280.684 344.458 -272.966 356.777 -264.945C386.927 -321.007 425.218 -373.483 471.561 -420.576C460.741 -432.067 450.479 -443.03 440.822 -453.418ZM472.65 -421.68C461.828 -433.175 451.563 -444.14 441.905 -454.529C453.923 -466.818 466.463 -478.759 479.524 -490.323C771.882 -749.165 1218.49 -724.386 1497.44 -441.2C1487.7 -432.332 1478.48 -423.149 1469.75 -413.654C1423.45 -459.767 1372.38 -498.465 1318.15 -529.625C1322.87 -538.127 1327.9 -546.336 1333.24 -554.243L1331.96 -555.111C1326.6 -547.171 1321.55 -538.93 1316.8 -530.396C1100.44 -654.093 834.013 -658.03 618.883 -534.443C614.299 -542.388 610.557 -549.264 607.687 -555.023L606.299 -554.331C609.182 -548.548 612.939 -541.644 617.54 -533.669C578.479 -511.11 541.119 -484.339 506.069 -453.307C494.502 -443.066 483.362 -432.517 472.65 -421.68ZM472.624 -419.446C426.375 -372.441 388.164 -320.059 358.081 -264.096C371.762 -255.178 385.787 -245.889 400.138 -236.246C428.533 -288.751 464.507 -337.928 507.976 -382.111C495.636 -395.082 483.834 -407.544 472.624 -419.446ZM509.065 -383.215C496.724 -396.187 484.923 -408.65 473.714 -420.551C484.412 -431.375 495.539 -441.913 507.092 -452.142C542.064 -483.104 579.341 -509.817 618.318 -532.325C625.394 -520.128 634.382 -505.506 645.18 -488.63C608.59 -467.406 573.579 -442.265 540.71 -413.164C529.757 -403.466 519.208 -393.476 509.065 -383.215ZM509.045 -380.987C465.661 -336.884 429.761 -287.793 401.43 -235.378C414.124 -226.84 427.073 -218.028 440.264 -208.953C467.084 -258.412 501.045 -304.756 542.062 -346.411C530.684 -358.288 519.667 -369.824 509.045 -380.987ZM543.152 -347.515C531.773 -359.393 520.755 -370.929 510.134 -382.092C520.262 -392.339 530.795 -402.315 541.733 -411.998C574.542 -441.046 609.492 -466.14 646.018 -487.322C653.837 -475.122 662.587 -461.763 672.229 -447.308C637.418 -427.168 604.105 -403.275 572.837 -375.592C562.565 -366.498 552.67 -357.132 543.152 -347.515ZM543.135 -345.291C502.197 -303.711 468.306 -257.446 441.547 -208.07C456.455 -197.806 471.671 -187.209 487.177 -176.297C512.269 -222.408 544.016 -265.638 582.333 -304.515C568.856 -318.493 555.774 -332.101 543.135 -345.291ZM583.423 -305.618C569.945 -319.598 556.863 -333.205 544.225 -346.395C553.726 -355.997 563.605 -365.348 573.86 -374.427C605.076 -402.064 638.335 -425.914 673.093 -446.014C682.781 -431.505 693.359 -415.903 704.788 -399.272C671.941 -380.322 640.504 -357.806 611.004 -331.688C601.463 -323.242 592.269 -314.545 583.423 -305.618ZM583.409 -303.399C545.165 -264.59 513.484 -221.433 488.452 -175.399C503.326 -164.926 518.466 -154.164 533.858 -143.129C557.289 -186.116 586.948 -226.438 622.75 -262.704C609.31 -276.574 596.183 -290.152 583.409 -303.399ZM623.841 -263.806C610.4 -277.678 597.273 -291.256 584.5 -304.502C593.328 -313.413 602.504 -322.092 612.027 -330.523C641.48 -356.6 672.871 -379.077 705.67 -397.989C715.778 -383.29 726.546 -367.794 737.947 -351.543C706.877 -333.722 677.139 -312.484 649.249 -287.796C640.464 -280.02 631.994 -272.018 623.841 -263.806ZM623.829 -261.59C588.096 -225.388 558.5 -185.134 535.128 -142.218C552.351 -129.864 569.888 -117.169 587.717 -104.157C609.426 -143.67 636.808 -180.803 669.773 -214.291C654.109 -230.382 638.776 -246.166 623.829 -261.59ZM670.863 -215.394C655.198 -231.486 639.866 -247.269 624.92 -262.692C633.057 -270.888 641.509 -278.874 650.277 -286.635C678.123 -311.284 707.817 -332.484 738.842 -350.268C750.721 -333.345 763.283 -315.61 776.498 -297.11C748.066 -280.629 720.819 -261.073 695.22 -238.418C686.791 -230.958 678.672 -223.278 670.863 -215.394ZM670.855 -213.18C637.953 -179.751 610.632 -142.682 588.979 -103.236C606.437 -90.4896 624.175 -77.4397 642.172 -64.1075C644.329 -62.5097 646.49 -60.9078 648.654 -59.3019C668.651 -95.0175 693.698 -128.623 723.712 -159.006C705.742 -177.387 688.099 -195.468 670.855 -213.18ZM724.803 -160.107C706.831 -178.49 689.188 -196.572 671.945 -214.283C679.735 -222.15 687.837 -229.813 696.247 -237.257C721.807 -259.877 749.013 -279.397 777.403 -295.843C791.34 -276.341 805.999 -255.994 821.346 -234.859C795.309 -219.666 770.335 -201.686 746.844 -180.898C739.224 -174.156 731.877 -167.22 724.803 -160.107ZM724.796 -157.897C694.84 -127.57 669.85 -94.0234 649.909 -58.3708C669.466 -43.8555 689.324 -29.0126 709.459 -13.869C727.8 -46.004 750.627 -76.2802 777.862 -103.717C762.52 -119.355 747.353 -134.836 732.403 -150.118C729.861 -152.717 727.325 -155.31 724.796 -157.897ZM778.956 -104.816C763.619 -120.449 748.457 -135.924 733.512 -151.202C730.964 -153.807 728.422 -156.406 725.887 -158.998C732.942 -166.094 740.271 -173.012 747.871 -179.737C771.326 -200.492 796.263 -218.439 822.261 -233.598C828.259 -225.342 834.361 -216.965 840.565 -208.472C849.102 -196.787 857.834 -184.88 866.755 -172.762C842.949 -158.803 820.094 -142.312 798.573 -123.272C791.801 -117.279 785.261 -111.123 778.956 -104.816ZM778.947 -102.611C751.767 -75.2259 728.994 -45.0054 710.707 -12.9303C730.236 1.7616 750.025 16.7356 770.05 31.9672C786.781 3.21887 807.478 -23.9099 832.059 -48.5571C814.169 -66.7395 796.445 -84.777 778.947 -102.611ZM833.156 -49.6528C815.265 -67.8362 797.54 -85.8746 780.042 -103.709C786.328 -109.998 792.848 -116.136 799.601 -122.11C821.088 -141.122 843.909 -157.581 867.679 -171.507C882.127 -151.885 897.069 -131.709 912.483 -111.017C890.791 -98.2381 869.946 -83.1538 850.303 -65.7515C844.394 -60.5164 838.678 -55.147 833.156 -49.6528ZM833.147 -47.452C808.615 -22.8542 787.971 4.2215 771.292 32.9119C790.78 47.7378 810.491 62.8068 830.404 78.0966C845.578 52.5865 864.243 28.4747 886.322 6.52026C868.476 -11.572 850.731 -29.5814 833.147 -47.452ZM887.424 5.42932C869.576 -12.6645 851.83 -30.6756 834.244 -48.5478C839.746 -54.0229 845.442 -59.3738 851.331 -64.591C870.943 -81.9661 891.756 -97.0205 913.414 -109.767C928.063 -90.1058 943.137 -69.9799 958.616 -49.421C938.857 -37.7668 919.85 -24.0042 901.927 -8.12537C896.941 -3.7085 892.107 0.812134 887.424 5.42932ZM887.411 7.6239C865.379 29.5318 846.763 53.5924 831.64 79.0457C851.11 93.9976 870.773 109.16 890.609 124.511C904.258 102.093 920.954 80.8671 940.619 61.5026C922.821 43.4991 905.067 25.5215 887.411 7.6239ZM941.726 60.4171C923.927 42.4118 906.17 24.4324 888.513 6.53296C893.176 1.93536 897.99 -2.56622 902.955 -6.96472C920.85 -22.8188 939.828 -36.553 959.553 -48.1758C974.347 -28.531 989.51 -8.49225 1005.02 11.9131C987.15 22.4552 969.933 34.9174 953.686 49.3018C949.586 52.9316 945.599 56.6385 941.726 60.4171ZM942.816 61.5194C946.667 57.7625 950.632 54.0765 954.709 50.4669C970.933 36.1029 988.124 23.6667 1005.97 13.1548C1021.79 33.9607 1037.98 55.1466 1054.51 76.6832C1039.3 85.8682 1024.6 96.6243 1010.68 108.949C1006.94 112.258 1003.31 115.636 999.781 119.08C980.789 99.9089 961.779 80.7001 942.816 61.5194ZM941.709 62.6046C960.671 81.7855 979.682 100.995 998.674 120.166C981.633 136.975 967.083 155.31 955.102 174.606C933.837 158.032 912.742 141.642 891.838 125.462C905.438 103.101 922.086 81.925 941.709 62.6046ZM999.765 121.267C982.763 138.035 968.258 156.321 956.326 175.56C978.451 192.808 1000.76 210.255 1023.22 227.874C1033.43 211.686 1045.75 196.285 1060.11 182.126C1040.07 161.935 1019.93 141.623 999.765 121.267ZM1061.22 181.04C1064.21 178.128 1067.29 175.269 1070.45 172.467C1082.18 162.074 1094.55 152.97 1107.35 145.158C1089.7 122.399 1072.4 99.9755 1055.46 77.9193C1040.27 87.0756 1025.6 97.8075 1011.7 110.114C1007.99 113.402 1004.38 116.76 1000.87 120.182C1021.04 140.537 1041.18 160.85 1061.22 181.04ZM1061.2 183.226C1046.88 197.346 1034.61 212.7 1024.44 228.832C1046.55 246.168 1068.8 263.669 1091.17 281.309C1099.65 268.141 1109.81 255.588 1121.58 244.005C1101.62 223.925 1081.47 203.639 1061.2 183.226ZM1122.69 242.922C1102.73 222.841 1082.57 202.554 1062.31 182.141C1065.28 179.249 1068.34 176.41 1071.48 173.628C1083.19 163.253 1095.54 154.172 1108.3 146.388C1125.39 168.422 1142.8 190.771 1160.51 213.404C1150.01 219.897 1139.84 227.426 1130.18 235.986C1127.62 238.255 1125.12 240.568 1122.69 242.922ZM1122.68 245.105C1110.94 256.649 1100.82 269.157 1092.39 282.27C1114.5 299.696 1136.72 317.257 1159.05 334.928C1165.82 324.685 1173.85 314.899 1183.11 305.835C1163.22 285.866 1143.05 265.594 1122.68 245.105ZM1184.22 304.755C1164.33 284.785 1144.16 264.512 1123.79 244.021C1126.19 241.689 1128.67 239.396 1131.21 237.146C1140.85 228.602 1151 221.096 1161.47 214.63C1178.7 236.645 1196.23 258.929 1214.02 281.456C1205.69 286.67 1197.6 292.688 1189.91 299.503C1187.96 301.224 1186.07 302.975 1184.22 304.755ZM1184.2 306.934C1174.98 315.961 1166.99 325.702 1160.26 335.89C1182.35 353.375 1204.54 370.967 1226.8 388.642C1231.88 381.257 1237.83 374.172 1244.62 367.567C1224.85 347.742 1204.68 327.5 1184.2 306.934ZM1245.74 366.491C1225.97 346.665 1205.8 326.421 1185.31 305.854C1187.14 304.095 1189.01 302.365 1190.93 300.664C1198.62 293.862 1206.68 287.865 1214.98 282.677C1232.34 304.643 1249.95 326.84 1267.81 349.244C1261.54 353.214 1255.46 357.772 1249.64 362.914C1248.31 364.089 1247.01 365.282 1245.74 366.491ZM1245.72 368.664C1238.96 375.236 1233.04 382.276 1228.01 389.603C1253.63 409.95 1279.35 430.406 1305.14 450.934L1304.17 452.147C1278.42 431.644 1252.73 411.213 1227.14 390.89C1222.17 398.303 1218.09 405.997 1214.94 413.79C1239.94 430.143 1265.14 446.769 1290.54 463.661C1296.79 458.948 1302.92 453.944 1308.9 448.649C1311.86 446.029 1314.75 443.366 1317.57 440.661C1294.38 417.437 1270.36 393.377 1245.72 368.664ZM1318.69 439.586C1295.5 416.362 1271.48 392.302 1246.84 367.589C1248.08 366.402 1249.36 365.23 1250.67 364.075C1256.47 358.945 1262.54 354.405 1268.78 350.461C1289.05 375.889 1309.63 401.582 1330.5 427.506C1326.71 431.614 1322.77 435.644 1318.69 439.586ZM406.452 -493.086C393.837 -506.993 382.92 -519.282 373.9 -529.758C387.905 -544.174 402.549 -558.165 417.83 -571.694C751.379 -867.005 1264.07 -832.33 1572.36 -497.045C1559.18 -488.997 1546.64 -480.573 1534.73 -471.774C1240.3 -780.205 760.672 -809.495 447.52 -532.244C433.244 -519.604 419.555 -506.54 406.452 -493.086ZM372.77 -531.073C386.774 -545.481 401.415 -559.466 416.691 -572.992C751.062 -869.03 1264.99 -834.143 1573.86 -497.96C1586.55 -505.652 1599.82 -512.997 1613.71 -519.993C1291.55 -885.862 742.581 -927.284 386.908 -612.384C304.779 -539.671 240.128 -454.308 193.215 -361.498C206.425 -354.854 220.348 -347.438 234.946 -339.292C270.292 -408.009 315.911 -472.347 371.686 -529.956C363.363 -539.651 356.708 -547.752 351.885 -554.1L353.119 -555.038C357.909 -548.734 364.513 -540.693 372.77 -531.073ZM278.072 -312.487C250.263 -258.866 229.085 -202.39 214.6 -144.31C228.368 -138.966 242.661 -133.195 257.461 -127.004C271.419 -182.487 291.828 -236.404 318.631 -287.538C304.689 -296.311 291.162 -304.635 278.072 -312.487ZM319.947 -286.709C293.193 -235.647 272.826 -181.805 258.906 -126.399C271.029 -121.317 283.491 -115.954 296.282 -110.317C310.012 -163.315 329.952 -214.794 356.042 -263.573C343.726 -271.593 331.69 -279.31 319.947 -286.709ZM619.661 -533.099C626.731 -520.912 635.719 -506.29 646.523 -489.407C847.331 -605.241 1095.37 -603.343 1297.71 -490.604C1303.22 -503.996 1309.33 -516.815 1316.05 -529.038C1100.15 -652.479 834.306 -656.4 619.661 -533.099ZM647.361 -488.098C655.179 -475.902 663.93 -462.542 673.575 -448.084C720.828 -475.262 770.823 -495.543 822.197 -509.024C817.437 -523.239 813.458 -536.594 810.176 -549.234L811.677 -549.624C814.957 -536.99 818.937 -523.636 823.7 -509.417C873.456 -522.339 924.491 -528.891 975.569 -529.162C974.857 -534.272 974.224 -539.283 973.665 -544.199L975.205 -544.374C975.77 -539.404 976.412 -534.338 977.134 -529.168C1029.36 -529.314 1081.62 -522.893 1132.59 -510.001C1133.6 -523.864 1135.13 -537.049 1137.18 -549.554L1138.71 -549.303C1136.65 -536.762 1135.12 -523.532 1134.11 -509.613C1185.68 -496.433 1235.91 -476.624 1283.44 -450.283C1287.49 -463.722 1292.05 -476.686 1297.12 -489.157C1095.23 -601.715 847.727 -603.642 647.361 -488.098ZM674.439 -446.79C684.126 -432.283 694.705 -416.681 706.137 -400.047C749.391 -424.843 795.072 -443.47 841.981 -456.01C834.487 -474.412 828.097 -491.524 822.693 -507.548C771.446 -494.109 721.575 -473.889 674.439 -446.79ZM707.019 -398.764C717.127 -384.066 727.896 -368.569 739.299 -352.316C779.261 -375.082 821.409 -392.21 864.646 -403.769C856.416 -421.748 849.083 -438.635 842.572 -454.56C795.765 -442.064 750.181 -423.493 707.019 -398.764ZM740.194 -351.041C752.071 -334.121 764.632 -316.388 777.847 -297.889C814.411 -318.932 852.916 -334.905 892.381 -345.864C882.44 -365.828 873.437 -384.612 865.302 -402.339C822.147 -390.825 780.08 -373.748 740.194 -351.041ZM778.753 -296.622C792.687 -277.122 807.346 -256.777 822.693 -235.642C855.856 -254.845 890.727 -269.539 926.44 -279.769C914.305 -302.631 903.212 -324.149 893.086 -344.45C853.691 -333.538 815.253 -317.613 778.753 -296.622ZM841.817 -209.387C850.384 -197.66 859.148 -185.711 868.101 -173.548C898.211 -191.055 929.825 -204.523 962.17 -213.985C959.934 -218.018 957.726 -222.015 955.545 -225.976C945.516 -244.191 936.072 -261.639 927.182 -278.37C891.531 -268.185 856.718 -253.537 823.609 -234.381C829.575 -226.168 835.645 -217.835 841.817 -209.387ZM869.026 -172.293C883.474 -152.671 898.415 -132.497 913.828 -111.806C941.113 -127.734 969.723 -140.026 998.955 -148.707C986.217 -170.981 974.224 -192.256 962.94 -212.596C930.65 -203.18 899.087 -189.757 869.026 -172.293ZM914.76 -110.556C929.409 -90.8947 944.483 -70.7693 959.962 -50.211C984.59 -64.5934 1010.37 -75.7113 1036.66 -83.579C1023.71 -105.697 1011.42 -126.93 999.745 -147.326C970.564 -138.691 942.001 -126.443 914.76 -110.556ZM960.9 -48.9652C975.694 -29.3206 990.856 -9.28204 1006.37 11.123C1028.44 -1.75305 1051.5 -11.7116 1074.96 -18.7568C1061.89 -40.6827 1049.4 -61.8192 1037.46 -82.2048C1011.22 -74.3832 985.488 -63.3088 960.9 -48.9652ZM1007.32 12.3654C1023.14 33.167 1039.32 54.3484 1055.85 75.8804C1075.12 64.3901 1095.21 55.4088 1115.61 48.9423C1101.78 26.0621 1088.5 3.96466 1075.78 -17.3857C1052.37 -10.3879 1029.35 -0.473083 1007.32 12.3654ZM1116.44 50.3038C1096.09 56.7236 1076.04 65.6621 1056.8 77.1171C1073.74 99.1711 1091.04 121.592 1108.68 144.349C1125.08 134.473 1142.17 126.71 1159.51 121.069C1144.58 96.6812 1130.23 73.1046 1116.44 50.3038ZM1162.8 213.815C1180.03 235.828 1197.55 258.109 1215.35 280.634C1226.06 274.065 1237.18 268.815 1248.43 264.9C1233.36 240.72 1218.76 217.216 1204.63 194.366C1190.38 199.12 1176.32 205.604 1162.8 213.815ZM1216.31 281.856C1233.66 303.82 1251.27 326.015 1269.13 348.416C1276.99 343.557 1285.1 339.621 1293.29 336.621C1278.18 312.544 1263.51 289.091 1249.27 266.241C1238.07 270.111 1226.99 275.319 1216.31 281.856ZM1270.1 349.634C1290.28 374.955 1310.78 400.539 1331.56 426.352C1335.21 422.364 1338.73 418.303 1342.11 414.176C1325.65 388.098 1309.66 362.699 1294.13 337.957C1286 340.912 1277.92 344.808 1270.1 349.634ZM1109.64 145.58C1126.72 167.612 1144.13 189.957 1161.84 212.589C1175.4 204.345 1189.5 197.818 1203.79 193.018C1188.79 168.759 1174.31 145.236 1160.34 122.423C1143.05 128.018 1126 135.738 1109.64 145.58ZM1317.4 -528.267C1310.68 -516.052 1304.58 -503.236 1299.08 -489.842C1350.59 -460.981 1399.13 -424.922 1443.15 -381.777C1451.14 -392.358 1459.65 -402.603 1468.7 -412.51C1422.49 -458.54 1371.52 -497.166 1317.4 -528.267ZM843.491 -456.411C889.929 -468.69 937.556 -475.01 985.209 -475.451C981.205 -493.992 978.099 -511.31 975.788 -527.609C924.803 -527.356 873.861 -520.829 824.197 -507.94C829.6 -491.925 835.992 -474.816 843.491 -456.411ZM866.166 -404.173C857.931 -422.155 850.595 -439.041 844.083 -454.961C890.439 -467.199 937.981 -473.486 985.546 -473.9C989.111 -457.539 993.373 -440.228 998.404 -421.829C953.978 -421.491 909.531 -415.629 866.166 -404.173ZM893.904 -346.284C883.961 -366.246 874.957 -385.024 866.823 -402.742C910.113 -414.155 954.483 -419.978 998.829 -420.282C1003.71 -402.512 1009.31 -383.73 1015.69 -363.813C974.803 -363.067 933.869 -357.243 893.904 -346.284ZM927.964 -280.203C915.829 -303.063 904.735 -324.576 894.609 -344.87C934.507 -355.784 975.372 -361.566 1016.18 -362.271C1022.75 -341.822 1030.14 -320.179 1038.41 -297.21C1001.35 -296.108 964.228 -290.454 927.964 -280.203ZM963.697 -214.428C961.403 -218.565 959.138 -222.664 956.903 -226.724C946.936 -244.827 937.547 -262.17 928.708 -278.803C964.912 -289.008 1001.97 -294.618 1038.97 -295.675C1046.41 -275.049 1054.57 -253.357 1063.49 -230.503C1030.03 -229.234 996.493 -223.888 963.697 -214.428ZM1000.48 -149.157C987.745 -171.429 975.752 -192.701 964.467 -213.039C997.21 -222.452 1030.69 -227.753 1064.09 -228.975C1072.17 -208.305 1080.87 -186.688 1090.23 -164.053C1060.17 -162.751 1030.02 -157.794 1000.48 -149.157ZM1038.19 -84.0333C1025.24 -106.15 1012.95 -127.381 1001.27 -147.776C1030.76 -156.367 1060.86 -161.276 1090.86 -162.529C1099.46 -141.74 1108.62 -120.096 1118.36 -97.5409C1091.56 -96.3099 1064.63 -91.8123 1038.19 -84.0333ZM1076.49 -19.213C1063.42 -41.1378 1050.93 -62.273 1038.99 -82.6576C1065.39 -90.3918 1092.28 -94.8403 1119.01 -96.0197C1128.01 -75.2109 1137.49 -53.6295 1147.49 -31.2329C1123.83 -30.1382 1099.97 -26.1331 1076.49 -19.213ZM1117.14 48.4644C1103.3 25.5925 1090.03 3.50287 1077.31 -17.84C1100.75 -24.7153 1124.57 -28.6696 1148.17 -29.7098C1157.77 -8.22937 1167.84 13.9991 1178.4 37.0128C1158.02 38.34 1137.43 42.1591 1117.14 48.4644ZM1117.96 49.8279C1138.22 43.5651 1158.77 39.7963 1179.09 38.5234C1189.73 61.6962 1200.87 85.6633 1212.53 110.463C1195.4 111.779 1178.1 115.154 1161.03 120.58C1146.1 96.1971 1131.75 72.6246 1117.96 49.8279ZM1249.93 264.384C1234.86 240.21 1220.27 216.712 1206.14 193.867C1220.05 189.348 1234.13 186.478 1248.04 185.263C1259.19 208.535 1270.76 232.479 1282.76 257.121C1271.87 258.282 1260.84 260.708 1249.93 264.384ZM1294.79 336.084C1279.68 312.016 1265.01 288.571 1250.77 265.729C1261.65 262.09 1272.64 259.711 1283.48 258.601C1294.82 281.885 1306.54 305.791 1318.65 330.341C1310.76 331.363 1302.74 333.282 1294.79 336.084ZM1343.14 412.908C1326.84 387.087 1311.01 361.933 1295.63 337.425C1303.56 334.658 1311.53 332.784 1319.38 331.811C1330.31 353.959 1341.56 376.629 1353.13 399.839C1349.95 404.261 1346.61 408.62 1343.14 412.908ZM1205.31 192.517C1190.31 168.263 1175.83 144.745 1161.86 121.936C1178.9 116.551 1196.16 113.225 1213.23 111.962C1224.14 135.162 1235.5 159.088 1247.32 183.772C1233.36 185.041 1219.25 187.959 1205.31 192.517ZM1132.48 -508.428C1081.62 -521.315 1029.47 -527.742 977.353 -527.615C979.669 -511.322 982.78 -494.007 986.792 -475.464C1035.33 -475.78 1083.88 -469.999 1131.21 -458.205C1130.95 -475.824 1131.37 -492.566 1132.48 -508.428ZM1000.43 -420.29C1005.32 -402.529 1010.93 -383.753 1017.31 -363.84C1058.55 -364.457 1099.73 -359.907 1139.8 -350.249C1137.31 -368.818 1135.35 -386.699 1133.94 -403.889C1090.24 -414.972 1045.36 -420.463 1000.43 -420.29ZM1017.8 -362.297C1024.38 -341.856 1031.77 -320.219 1040.05 -297.256C1077.05 -298.222 1113.99 -294.653 1149.97 -286.593C1146.04 -308.045 1142.73 -328.715 1140.03 -348.6C1100.05 -358.287 1058.96 -362.873 1017.8 -362.297ZM1040.6 -295.719C1048.05 -275.099 1056.21 -253.412 1065.13 -230.562C1098.13 -231.682 1131.05 -228.837 1163.11 -222.061C1158.29 -243.712 1154.01 -264.671 1150.27 -284.934C1114.38 -293.031 1077.52 -296.641 1040.6 -295.719ZM1065.73 -229.031C1073.81 -208.366 1082.52 -186.753 1091.88 -164.121C1121.15 -165.258 1150.31 -162.929 1178.69 -157.157C1176.47 -165.838 1174.32 -174.422 1172.26 -182.906C1169.16 -195.624 1166.23 -208.121 1163.49 -220.395C1131.5 -227.214 1098.66 -230.104 1065.73 -229.031ZM1092.51 -162.594C1101.12 -141.809 1110.27 -120.166 1120.01 -97.6129C1145.82 -98.6689 1171.47 -96.6937 1196.4 -91.7003C1190.2 -113.52 1184.44 -134.781 1179.12 -155.484C1150.81 -161.305 1121.72 -163.683 1092.51 -162.594ZM1120.67 -96.0887C1129.67 -75.2817 1139.15 -53.7012 1149.16 -31.3052C1171.76 -32.221 1194.17 -30.4766 1215.87 -26.0757C1209.13 -47.8947 1202.8 -69.2097 1196.88 -90.0188C1172.02 -95.0662 1146.42 -97.0944 1120.67 -96.0887ZM1149.84 -29.7784C1159.43 -8.30902 1169.5 13.908 1180.06 36.9101C1199.41 35.7776 1218.55 36.8947 1237.06 40.2663C1229.8 18.2496 1222.91 -3.29901 1216.39 -24.3782C1194.76 -28.8398 1172.4 -30.6418 1149.84 -29.7784ZM1237.62 41.9545C1219.17 38.5198 1200.07 37.3439 1180.75 38.4249C1191.39 61.5902 1202.53 85.5499 1214.18 110.342C1230.28 109.228 1246.22 109.936 1261.64 112.474C1253.22 88.4587 1245.22 64.9518 1237.62 41.9545ZM1249.69 185.126C1260.84 208.389 1272.41 232.323 1284.4 256.955C1294.81 255.965 1305.09 256.134 1315.02 257.471C1305.75 233.371 1296.83 209.706 1288.26 186.477C1275.75 184.552 1262.8 184.103 1249.69 185.126ZM1285.13 258.443C1296.46 281.714 1308.18 305.606 1320.28 330.142C1328.22 329.237 1336.02 329.242 1343.52 330.172C1333.91 306.088 1324.62 282.408 1315.66 259.132C1305.77 257.728 1295.52 257.5 1285.13 258.443ZM1321.01 331.621C1331.75 353.375 1342.79 375.634 1354.15 398.413C1357.86 393.202 1361.37 387.906 1364.68 382.536C1357.69 365.439 1350.86 348.537 1344.18 331.828C1336.73 330.828 1328.94 330.762 1321.01 331.621ZM1214.89 111.846C1225.8 135.037 1237.15 158.955 1248.98 183.63C1262.1 182.559 1275.08 182.949 1287.65 184.809C1278.8 160.788 1270.32 137.235 1262.22 114.15C1246.86 111.549 1230.96 110.782 1214.89 111.846ZM987.13 -473.912C990.7 -457.553 994.969 -440.242 1000.01 -421.839C1045.02 -422.047 1090.01 -416.584 1133.8 -405.522C1132.37 -423.29 1131.52 -440.316 1131.24 -456.598C1084.01 -468.401 1035.56 -474.201 987.13 -473.912ZM1298.48 -488.395C1293.42 -475.925 1288.87 -462.958 1284.82 -449.512C1333.26 -422.505 1378.87 -388.7 1420.19 -348.199C1427.04 -359.3 1434.37 -370.076 1442.21 -380.527C1398.3 -423.591 1349.88 -459.584 1298.48 -488.395ZM1134 -508.039C1185.45 -494.864 1235.57 -475.072 1282.98 -448.761C1278.61 -434.086 1274.82 -418.849 1271.62 -403.072C1227.45 -427.444 1180.74 -445.721 1132.77 -457.815C1132.5 -475.44 1132.91 -492.182 1134 -508.039ZM1132.8 -456.206C1133.08 -439.925 1133.95 -422.895 1135.39 -405.119C1179.78 -393.764 1222.93 -376.653 1263.66 -353.861C1265.68 -370.227 1268.22 -386.106 1271.3 -401.477C1227.24 -425.833 1180.65 -444.105 1132.8 -456.206ZM1141.42 -349.857C1138.92 -368.425 1136.95 -386.301 1135.53 -403.484C1179.8 -392.11 1222.85 -374.989 1263.46 -352.197C1261.58 -336.591 1260.17 -320.544 1259.22 -304.076C1221.85 -324.596 1182.22 -339.877 1141.42 -349.857ZM1151.61 -286.221C1147.68 -307.669 1144.35 -328.331 1141.64 -348.205C1182.34 -338.196 1221.87 -322.893 1259.12 -302.359C1258.12 -284.434 1257.66 -266.012 1257.73 -247.117C1224.01 -264.801 1188.32 -277.852 1151.61 -286.221ZM1164.78 -221.705C1159.95 -243.353 1155.66 -264.305 1151.92 -284.56C1188.53 -276.153 1224.12 -263.07 1257.73 -245.359C1257.83 -226.76 1258.42 -207.704 1259.5 -188.215C1229.38 -203.463 1197.53 -214.638 1164.78 -221.705ZM1180.38 -156.809C1178.09 -165.734 1175.89 -174.556 1173.76 -183.273C1170.72 -195.742 1167.86 -207.996 1165.16 -220.036C1197.82 -212.925 1229.58 -201.708 1259.6 -186.422C1259.78 -183.337 1259.96 -180.241 1260.16 -177.135C1261.2 -161.002 1262.56 -144.58 1264.23 -127.879C1237.58 -141.111 1209.39 -150.762 1180.38 -156.809ZM1198.11 -91.3525C1191.9 -113.171 1186.13 -134.431 1180.81 -155.132C1209.75 -149.035 1237.86 -139.332 1264.41 -126.051C1266.4 -106.439 1268.82 -86.4459 1271.65 -66.0911C1248.33 -77.6699 1223.61 -86.0951 1198.11 -91.3525ZM1217.6 -25.7182C1210.86 -47.5392 1204.52 -68.8556 1198.59 -89.666C1224.03 -84.3508 1248.68 -75.8645 1271.91 -64.2233C1274.7 -44.2598 1277.9 -23.95 1281.47 -3.31281C1261.32 -13.5821 1239.84 -21.0518 1217.6 -25.7182ZM1238.8 40.5902C1231.53 18.5872 1224.64 -2.948 1218.13 -24.0142C1240.32 -19.2812 1261.74 -11.7379 1281.81 -1.39056C1285.24 18.291 1289.01 38.2692 1293.12 58.5278C1276.01 50.1719 1257.75 44.1943 1238.8 40.5902ZM1239.36 42.2859C1258.27 45.9601 1276.47 52.0172 1293.51 60.4596C1297.92 82.127 1302.7 104.114 1307.85 126.4C1293.79 120.002 1278.85 115.46 1263.38 112.769C1254.97 88.7665 1246.96 65.2715 1239.36 42.2859ZM1316.78 257.72C1307.51 233.631 1298.59 209.976 1290.02 186.757C1302.23 188.776 1314.02 192.21 1325.12 197.063C1330.87 219.42 1336.94 242.043 1343.33 264.914C1334.91 261.492 1326 259.097 1316.78 257.72ZM1345.29 330.408C1335.67 306.333 1326.38 282.662 1317.42 259.396C1326.63 260.84 1335.5 263.314 1343.87 266.824C1350.19 289.402 1356.81 312.221 1363.73 335.262C1357.9 332.95 1351.71 331.335 1345.29 330.408ZM1365.69 380.894C1358.97 364.445 1352.39 348.175 1345.96 332.085C1352.37 333.08 1358.52 334.776 1364.31 337.178C1367.23 346.915 1370.21 356.693 1373.24 366.508L1373.98 366.28C1371.38 371.204 1368.61 376.078 1365.69 380.894ZM1289.4 185.078C1280.55 161.069 1272.07 137.528 1263.97 114.454C1279.41 117.214 1294.3 121.835 1308.3 128.32C1313.4 150.312 1318.84 172.596 1324.63 195.151C1313.47 190.385 1301.64 187.03 1289.4 185.078ZM1284.37 -447.988C1280 -433.313 1276.23 -418.071 1273.04 -402.285C1317.94 -377.343 1360.2 -346.086 1398.45 -308.606C1404.84 -321.748 1411.8 -334.495 1419.36 -346.844C1378.15 -387.272 1332.67 -421.021 1284.37 -447.988ZM1272.72 -400.687C1269.65 -385.311 1267.13 -369.421 1265.12 -353.04C1306.4 -329.774 1345.15 -300.658 1380.14 -265.773C1385.43 -279.965 1391.29 -293.753 1397.74 -307.133C1359.61 -344.555 1317.49 -375.771 1272.72 -400.687ZM1264.92 -351.373C1263.05 -335.768 1261.66 -319.72 1260.72 -303.246C1298.73 -282.195 1334.37 -255.705 1366.47 -223.843C1370.36 -237.628 1374.72 -251.072 1379.55 -264.174C1344.69 -299.023 1306.06 -328.115 1264.92 -351.373ZM1260.63 -301.525C1259.64 -283.608 1259.2 -265.192 1259.28 -246.298C1293.7 -228.068 1326.04 -204.992 1355.28 -177.122C1356.37 -182.581 1357.52 -187.992 1358.74 -193.356C1360.94 -203.106 1363.36 -212.699 1365.99 -222.133C1334.02 -253.98 1298.51 -280.466 1260.63 -301.525ZM1259.29 -244.536C1259.4 -225.943 1260.01 -206.891 1261.1 -187.401C1291.93 -171.613 1320.93 -151.541 1347.2 -127.222C1349.28 -143.641 1351.85 -159.674 1354.92 -175.318C1325.81 -203.193 1293.59 -226.283 1259.29 -244.536ZM1261.71 -177.234C1262.76 -160.807 1264.15 -144.077 1265.87 -127.059C1293.23 -113.289 1318.94 -95.727 1342.23 -74.4002C1343.33 -91.7654 1344.9 -108.742 1346.96 -125.327C1320.81 -149.672 1291.93 -169.777 1261.2 -185.603C1261.36 -182.822 1261.53 -180.032 1261.71 -177.234ZM1266.05 -125.224C1268.05 -105.608 1270.48 -85.6094 1273.33 -65.2487C1297.4 -53.1025 1319.95 -37.5757 1340.28 -18.6839C1340.43 -36.9832 1341.03 -54.8921 1342.1 -72.4074C1318.93 -93.7855 1293.32 -111.401 1266.05 -125.224ZM1273.59 -63.3721C1276.4 -43.3969 1279.61 -23.0746 1283.2 -2.42383C1304.24 8.50452 1323.8 22.5062 1341.24 39.577C1340.49 20.4717 1340.15 1.75287 1340.27 -16.5758C1320.04 -35.5487 1297.59 -51.1534 1273.59 -63.3721ZM1283.54 -0.489502C1286.98 19.1813 1290.76 39.1489 1294.87 59.397C1312.91 68.4193 1329.63 80.1097 1344.49 94.4744C1343.11 76.6198 1342.05 59.0758 1341.34 41.8453C1324 24.6516 1304.52 10.5375 1283.54 -0.489502ZM1344.67 96.8207C1329.92 82.3055 1313.27 70.4807 1295.27 61.3438C1299.69 82.9908 1304.48 104.957 1309.63 127.223C1324.24 134.072 1337.88 142.948 1350.13 153.856C1347.97 134.508 1346.15 115.495 1344.67 96.8207ZM1326.93 197.869C1332.68 220.21 1338.76 242.818 1345.16 265.673C1353.21 269.12 1360.8 273.524 1367.77 278.893C1364.3 258.155 1361.13 237.747 1358.27 217.672C1348.74 209.586 1338.2 202.986 1326.93 197.869ZM1345.7 267.612C1352.03 290.181 1358.66 312.99 1365.58 336.023C1370.44 338.103 1375.05 340.682 1379.33 343.764C1375.33 322.578 1371.59 301.711 1368.15 281.167C1361.26 275.674 1353.73 271.158 1345.7 267.612ZM1366.17 337.981C1368.9 347.049 1371.67 356.152 1374.49 365.287L1374.51 365.282C1377.43 359.694 1380.15 354.043 1382.66 348.343C1382.31 348.047 1381.96 347.754 1381.61 347.466L1382 349.531L1380.48 349.822C1380.23 348.549 1379.99 347.278 1379.75 346.007C1375.55 342.822 1371 340.147 1366.17 337.981ZM1310.08 129.16C1315.19 151.134 1320.64 173.399 1326.43 195.936C1337.73 200.947 1348.32 207.424 1357.95 215.374C1355.11 195.307 1352.58 175.575 1350.39 156.178C1338.23 145.125 1324.66 136.12 1310.08 129.16ZM357.346 -262.724C331.305 -214.014 311.409 -162.607 297.718 -109.683C312.206 -103.286 327.114 -96.5374 342.426 -89.4431C355.499 -139.732 374.51 -188.588 399.398 -234.875C385.048 -244.518 371.025 -253.807 357.346 -262.724ZM400.69 -234.006C375.852 -187.786 356.886 -138.998 343.854 -88.7812C357.364 -82.5136 371.187 -75.9783 385.314 -69.1797C397.691 -117.029 415.781 -163.532 439.522 -207.581C426.332 -216.657 413.384 -225.469 400.69 -234.006ZM440.806 -206.697C417.115 -162.712 399.071 -116.275 386.736 -68.4949C402.563 -60.8695 418.77 -52.9149 435.343 -44.6372C446.961 -89.6685 464.011 -133.453 486.432 -174.925C470.926 -185.838 455.712 -196.435 440.806 -206.697ZM487.708 -174.027C465.337 -132.616 448.333 -88.8947 436.759 -43.9296C452.58 -36.02 468.733 -27.8169 485.206 -19.3257C496.024 -61.6227 512.014 -102.776 533.112 -141.755C517.72 -152.791 502.581 -163.554 487.708 -174.027ZM534.383 -140.844C513.335 -101.923 497.393 -60.83 486.621 -18.5966C504.743 -9.24799 523.251 0.448242 542.131 10.4849C552.307 -28.6015 567.275 -66.6786 586.966 -102.786C569.138 -115.798 551.603 -128.492 534.383 -140.844ZM588.229 -101.864C568.587 -65.8115 553.668 -27.792 543.538 11.2332C548.432 13.8372 553.352 16.4638 558.296 19.1133C573.96 27.5076 589.871 36.1301 606.021 44.9766C615.681 9.4798 629.66 -25.1109 647.892 -57.9363C646.802 -58.7453 645.713 -59.5533 644.624 -60.3603C643.498 -61.1951 642.373 -62.0289 641.249 -62.8616C623.31 -76.1507 605.63 -89.1584 588.229 -101.864ZM649.148 -57.0047C630.963 -24.2314 617.031 10.3044 607.418 45.7424C627.848 56.9407 648.658 68.4967 669.831 80.4027C678.93 48.3763 691.903 17.1499 708.687 -12.5098C688.556 -27.6511 668.701 -42.4916 649.148 -57.0047ZM709.935 -11.5707C693.197 18.0399 680.271 49.2141 671.219 81.1838C691.632 92.6691 712.382 104.479 733.451 116.606C741.958 87.9258 753.918 59.9368 769.267 33.3195C749.246 18.0905 729.461 3.11884 709.935 -11.5707ZM770.509 34.2645C755.205 60.8353 743.291 88.7747 734.831 117.401C755.201 129.131 775.869 141.157 796.822 153.474C804.709 128.01 815.658 103.13 829.609 79.4406C809.7 64.1537 789.993 49.0875 770.509 34.2645ZM830.845 80.3901C850.311 95.3389 869.969 110.498 889.801 125.846C877.227 146.726 867.288 168.624 860.047 191.002C839.17 178.492 818.547 166.249 798.193 154.28C806.033 128.868 816.937 104.036 830.845 80.3901ZM891.03 126.798C878.496 147.637 868.6 169.49 861.406 191.817C883.286 204.933 905.445 218.342 927.869 232.038C934.398 212.816 943.223 193.962 954.283 175.933C933.022 159.362 911.93 142.975 891.03 126.798ZM955.507 176.888C944.484 194.88 935.701 213.69 929.218 232.862C952.432 247.046 975.929 261.536 999.692 276.324C1005.38 260.187 1012.97 244.354 1022.4 229.195C999.934 211.579 977.63 194.134 955.507 176.888ZM1023.62 230.154C1014.22 245.278 1006.68 261.071 1001.03 277.161C1024.18 291.571 1047.58 306.265 1071.22 321.234C1076.07 308.028 1082.46 295.058 1090.34 282.623C1067.96 264.985 1045.71 247.487 1023.62 230.154ZM1091.55 283.583C1083.71 295.987 1077.36 308.919 1072.55 322.08C1095.67 336.726 1119.01 351.637 1142.57 366.805C1146.58 356.361 1151.81 346.091 1158.2 336.231C1135.88 318.563 1113.65 301.006 1091.55 283.583ZM1159.41 337.193C1153.05 347.024 1147.86 357.258 1143.89 367.658C1166.94 382.505 1190.19 397.597 1213.63 412.93C1216.82 405.094 1220.93 397.366 1225.92 389.928C1203.67 372.259 1181.49 354.672 1159.41 337.193ZM100.813 39.9924C99.9868 -32.0595 107.939 -103.887 124.58 -173.731C138.228 -169.754 152.733 -165.103 168.062 -159.795C151.773 -93.047 143.832 -24.3466 144.322 44.6097C129.389 42.6445 114.872 41.096 100.813 39.9924ZM146.047 44.8381C145.538 -24.0031 153.45 -92.5898 169.698 -159.227C183.384 -154.464 197.721 -149.182 212.685 -143.389C196.933 -79.7585 189.192 -14.2203 189.54 51.5881C174.695 48.9829 160.186 46.7251 146.047 44.8381ZM191.176 51.8765C190.805 -13.8271 198.514 -79.2623 214.223 -142.793C227.988 -137.448 242.28 -131.675 257.08 -125.482C241.964 -64.8515 234.544 -2.36542 234.897 60.3909C220.036 57.2473 205.452 54.4022 191.176 51.8765ZM236.445 60.7195C236.066 -1.94232 243.451 -64.3359 258.525 -124.877C270.644 -119.795 283.102 -114.433 295.889 -108.795C281 -50.7892 273.541 9.0213 273.589 69.0927C261.034 66.109 248.647 63.3142 236.445 60.7195ZM275.136 69.4611C275.058 9.48071 282.48 -50.2412 297.326 -108.161C311.812 -101.763 326.719 -95.0133 342.031 -87.9172C327.846 -32.8145 320.782 23.9917 320.916 81.0077C305.436 76.9028 290.167 73.0474 275.136 69.4611ZM322.464 81.4188C322.296 24.4897 329.32 -32.2329 343.46 -87.2547C356.968 -80.986 370.792 -74.449 384.92 -67.6484C371.475 -15.1225 364.906 39.0089 365.292 93.2823C350.858 89.1316 336.574 85.1721 322.464 81.4188ZM366.843 93.7288C366.418 39.5383 372.945 -14.5135 386.343 -66.9632C402.168 -59.3368 418.375 -51.3806 434.949 -43.1008C422.301 6.47815 416.231 57.5518 416.82 108.699C399.987 103.476 383.317 98.4783 366.843 93.7288ZM418.373 109.182C417.741 58.1133 423.766 7.11469 436.366 -42.3927C452.186 -34.4817 468.339 -26.2769 484.814 -17.7834C473.003 28.9723 467.504 77.1082 468.404 125.234C451.592 119.68 434.904 114.322 418.373 109.182ZM469.964 125.75C469.018 77.7001 474.468 29.6351 486.23 -17.0535C504.348 -7.70514 522.854 1.99115 541.731 12.0286C530.557 55.5156 525.305 100.235 526.067 144.866C507.243 138.274 488.528 131.893 469.964 125.75ZM527.628 145.413C526.815 100.855 532.016 56.2021 543.139 12.7775C547.924 15.3232 552.732 17.8907 557.563 20.4799C573.33 28.9289 589.346 37.609 605.604 46.5164C594.94 86.2451 589.679 127.092 589.911 167.854C569.057 160.147 548.278 152.654 527.628 145.413ZM591.466 168.429C591.181 127.737 596.39 86.9532 607.003 47.2831C627.427 58.4797 648.231 70.0339 669.397 81.938C659.294 118.016 654.101 155.092 653.907 192.072C633.057 184.004 612.225 176.111 591.466 168.429ZM733.001 118.136C711.938 106.011 691.194 94.2032 670.787 82.7198C660.735 118.743 655.595 155.759 655.455 192.672C676.269 200.734 697.1 208.971 717.894 217.345C718.433 184.064 723.5 150.664 733.001 118.136ZM719.437 217.966C719.919 184.75 724.931 151.407 734.382 118.931C754.746 130.659 775.408 142.683 796.354 154.997C787.497 184.072 782.627 213.893 781.838 243.562C761.112 234.917 740.293 226.373 719.437 217.966ZM783.374 244.203C784.105 214.598 788.919 184.831 797.726 155.804C818.074 167.771 838.69 180.011 859.56 192.518C851.389 218.228 846.774 244.553 845.813 270.68C825.133 261.777 804.301 252.939 783.374 244.203ZM847.34 271.337C848.24 245.273 852.799 218.999 860.921 193.334C882.794 206.447 904.946 219.853 927.362 233.545C919.986 255.688 915.653 278.304 914.459 300.697C892.318 290.868 869.92 281.065 847.34 271.337ZM915.976 301.371C917.108 279.04 921.384 256.473 928.713 234.37C951.921 248.552 975.412 263.039 999.168 277.825C992.816 296.242 988.93 315.039 987.591 333.665C964.092 322.913 940.188 312.127 915.976 301.371ZM989.099 334.355C990.378 315.79 994.208 297.041 1000.51 278.662C1023.65 293.07 1047.05 307.76 1070.67 322.727C1065.37 337.525 1061.99 352.605 1060.6 367.551C1037.27 356.572 1013.4 345.482 989.099 334.355ZM1062.1 368.255C1063.43 353.368 1066.75 338.334 1072.01 323.574C1095.12 338.216 1118.46 353.123 1142 368.287C1137.79 379.569 1134.99 391.041 1133.64 402.406C1110.48 391.2 1086.59 379.789 1062.1 368.255ZM1135.12 403.122C1136.41 391.814 1139.16 380.388 1143.33 369.142C1166.37 383.984 1189.61 399.071 1213.04 414.399C1209.95 422.288 1207.78 430.275 1206.59 438.175C1183.69 426.794 1159.82 415.076 1135.12 403.122ZM1208.05 438.902C1209.19 431.058 1211.31 423.116 1214.36 415.261C1239.11 431.458 1264.07 447.922 1289.23 464.647C1285.1 467.728 1280.92 470.681 1276.69 473.507C1255.01 462.425 1232.07 450.851 1208.05 438.902ZM55.6697 39.5498C57.1131 112.082 67.042 184.762 85.5392 255.959C99.3117 254.794 113.259 253.88 127.359 253.202C109.364 183.514 99.9448 112.358 99.0197 41.4083C84.0238 40.2661 69.5567 39.6351 55.6697 39.5498ZM100.832 41.5486C101.769 112.424 111.199 183.504 129.206 253.115C143.163 252.465 157.269 252.047 171.503 251.847C153.98 184.174 144.952 115.053 144.335 46.1743C129.402 44.2057 114.887 42.6545 100.832 41.5486ZM146.06 46.4033C146.695 115.199 155.74 184.236 173.276 251.823C187.364 251.644 201.576 251.677 215.894 251.911C198.786 186.528 190.032 119.714 189.55 53.1632C174.705 50.5543 160.196 48.2932 146.06 46.4033ZM191.187 53.452C191.693 119.918 200.467 186.645 217.591 251.94C231.883 252.19 246.279 252.638 260.758 253.273C243.991 190.364 235.4 126.037 234.907 61.9773C220.045 58.8298 205.462 55.9811 191.187 53.452ZM236.457 62.3064C236.977 126.282 245.591 190.524 262.378 253.345C274.232 253.876 286.142 254.532 298.097 255.306C281.919 194.627 273.778 132.526 273.592 70.6866C261.039 67.7006 248.655 64.9034 236.457 62.3064ZM275.14 71.0557C275.357 132.81 283.525 194.824 299.727 255.412C314.774 256.399 329.891 257.573 345.057 258.919C329.217 201.05 321.201 141.726 320.922 82.6132C305.44 78.5045 290.17 74.6455 275.14 71.0557ZM322.471 83.025C322.786 142.053 330.834 201.288 346.701 259.065C360.999 260.346 375.339 261.779 389.704 263.354C373.955 208.168 365.853 151.465 365.306 94.8999C350.868 90.7451 336.582 86.7817 322.471 83.025ZM366.857 95.3469C383.333 100.1 400.005 105.102 416.841 110.33C417.606 163.888 425.674 217.511 441.138 269.568C424.534 267.382 407.934 265.365 391.365 263.536C375.584 208.443 367.445 151.828 366.857 95.3469ZM418.396 110.813C419.205 164.289 427.315 217.826 442.819 269.79C459.568 272.008 476.32 274.398 493.047 276.943C477.706 228.026 469.536 177.467 468.437 126.878C451.62 121.32 434.929 115.958 418.396 110.813ZM469.999 127.395C471.148 177.904 479.366 228.379 494.755 277.203C512.96 279.984 531.135 282.948 549.241 286.072C534.74 240.71 527.061 193.673 526.098 146.52C507.275 139.925 488.561 133.541 469.999 127.395ZM527.661 147.068C528.678 194.146 536.41 241.1 550.966 286.37C570.638 289.776 590.228 293.369 609.69 297.12C596.88 255.645 590.327 212.635 589.924 169.512C569.075 161.803 548.303 154.31 527.661 147.068ZM591.481 170.088C591.94 213.139 598.551 256.069 611.419 297.453C631.321 301.3 651.087 305.312 670.667 309.456C659.407 271.871 653.854 232.865 653.901 193.733C633.057 185.664 612.232 177.77 591.481 170.088ZM655.452 194.334C655.463 233.397 661.077 272.327 672.399 309.823C692.465 314.08 712.334 318.476 731.951 322.976C722.118 289.252 717.461 254.205 717.871 219.007C697.084 210.634 676.259 202.397 655.452 194.334ZM719.416 219.63C719.066 254.764 723.787 289.738 733.687 323.375C753.935 328.03 773.912 332.795 793.56 337.633C785.009 307.724 781.125 276.569 781.798 245.226C761.079 236.581 740.267 228.037 719.416 219.63ZM783.337 245.868C782.726 277.153 786.679 308.239 795.302 338.062C805.46 340.568 815.53 343.093 825.503 345.632C835.619 348.208 845.635 350.797 855.543 353.396C848.13 327.257 844.906 299.921 845.757 272.344C825.084 263.442 804.258 254.604 783.337 245.868ZM847.287 273.003C846.501 300.528 849.798 327.8 857.29 353.855C879.299 359.638 900.77 365.464 921.608 371.273C915.659 349.102 913.285 325.862 914.376 302.357C892.245 292.53 869.858 282.729 847.287 273.003ZM915.897 303.033C914.871 326.492 917.32 349.671 923.351 371.759C947.102 378.39 970.024 384.997 991.975 391.49C987.728 373.362 986.258 354.439 987.479 335.318C963.991 324.57 940.099 313.786 915.897 303.033ZM988.992 336.011C987.833 355.087 989.374 373.95 993.698 392C1017.97 399.191 1041.05 406.239 1062.74 413.024C1059.95 398.839 1059.21 384.092 1060.46 369.197C1037.14 358.221 1013.28 347.135 988.992 336.011ZM1061.96 369.903C1060.77 384.755 1061.58 399.445 1064.43 413.555C1089.63 421.449 1112.94 428.982 1134.04 435.959C1132.49 425.6 1132.31 414.875 1133.46 404.04C1110.31 392.839 1086.43 381.433 1061.96 369.903ZM1134.95 404.759C1133.85 415.551 1134.09 426.221 1135.7 436.509L1137.2 437.005C1163.92 445.862 1187.02 453.795 1205.84 460.4C1205.23 453.694 1205.41 446.782 1206.36 439.792C1183.48 428.418 1159.63 416.707 1134.95 404.759ZM1207.83 440.523C1206.93 447.47 1206.8 454.33 1207.46 460.97C1215.51 463.801 1222.76 466.38 1229.15 468.675C1239.92 472.544 1248.26 475.604 1253.89 477.697C1256.71 478.743 1258.86 479.548 1260.3 480.091C1261.02 480.362 1261.57 480.568 1261.93 480.707L1262.34 480.863L1262.47 480.912C1262.48 480.915 1262.48 480.916 1262.2 481.64L1262.48 480.916L1263.35 481.25L1262.86 482.047L1262.77 482.199L1262.72 482.284C1266.92 479.806 1271.08 477.209 1275.2 474.491C1253.9 463.604 1231.39 452.245 1207.83 440.523ZM1277.8 475.818L1278.38 476.117L1278.95 475.006C1288.75 468.076 1298.29 460.525 1307.52 452.354C1336.35 426.83 1359.58 397.502 1377.01 366.121C1380.01 365.239 1383.16 364.57 1386.45 364.11C1370.48 391.842 1350.39 418.069 1326.31 441.856L1322.79 438.452L1321.71 439.566L1325.2 442.944C1320.64 447.419 1315.93 451.807 1311.07 456.101C1294 471.218 1275.96 484.469 1257.26 495.845C1257.99 492.864 1258.92 490.048 1260.07 487.414C1266.06 483.767 1271.97 479.902 1277.8 475.818ZM192.885 512.627C182.023 519.167 171.288 526.023 160.692 533.208C106.949 447.662 67.7242 356.118 42.8411 262.026C56.3716 260.299 70.1043 258.844 84.017 257.645C107.089 345.969 143.326 431.997 192.885 512.627ZM195.328 512.97C222.949 557.74 254.692 600.835 290.585 641.72C628.031 1026.1 1204.4 1069.56 1577.93 738.844C1587.18 730.661 1596.21 722.326 1605.03 713.845L1582.05 691.599C1573.01 700.34 1563.75 708.92 1554.25 717.331C1221.78 1011.69 720.849 995.343 393.021 694.365C391.091 698 389.193 701.686 387.327 705.423L385.94 704.731C387.873 700.859 389.84 697.042 391.842 693.28C368.279 671.57 345.614 648.386 323.975 623.738C287.911 582.656 256.222 539.245 228.879 494.097C217.571 500.068 206.384 506.355 195.328 512.97ZM228.076 492.768C216.765 498.741 205.574 505.031 194.515 511.649C145.107 431.272 108.967 345.52 85.9361 257.482C99.7083 256.32 113.655 255.409 127.756 254.735C149.171 337.065 182.565 417.329 228.076 492.768ZM230.486 493.251C257.76 538.273 289.366 581.565 325.334 622.535C346.826 647.016 369.331 670.05 392.726 691.627C398.714 680.475 405.003 669.807 411.575 659.604C393.364 642.181 375.747 623.809 358.791 604.494C323.143 563.887 291.979 520.894 265.27 476.147C253.56 481.531 241.961 487.229 230.486 493.251ZM264.472 474.807C252.761 480.195 241.16 485.896 229.682 491.922C184.302 416.72 150.989 336.714 129.604 254.648C143.562 254.002 157.669 253.588 171.904 253.392C191.862 329.878 222.678 404.497 264.472 474.807ZM266.847 475.424C293.481 520.022 324.549 562.873 360.083 603.349C376.934 622.544 394.439 640.805 412.53 658.128C419.343 647.641 426.457 637.649 433.853 628.133C420.022 614.451 406.568 600.18 393.525 585.322C358.788 545.754 328.529 503.806 302.715 460.125C290.654 464.914 278.694 470.009 266.847 475.424ZM301.917 458.774C289.857 463.566 277.896 468.665 266.049 474.083C224.364 403.994 193.614 329.613 173.679 253.369C187.768 253.193 201.983 253.23 216.303 253.469C234.991 324.318 263.494 393.471 301.917 458.774ZM304.256 459.516C329.989 503.027 360.143 544.814 394.752 584.236C407.728 599.018 421.111 613.217 434.868 626.832C442.559 617.015 450.551 607.709 458.822 598.891C448.423 588.312 438.256 577.374 428.34 566.078C395.018 528.121 366.04 487.858 341.375 445.925C328.907 450.147 316.529 454.673 304.256 459.516ZM340.574 444.559C328.107 448.786 315.731 453.316 303.458 458.163C265.125 393.063 236.674 324.127 218.001 253.498C232.296 253.751 246.695 254.204 261.178 254.843C278.763 320.265 305.199 384.136 340.574 444.559ZM342.874 445.419C367.454 487.166 396.319 527.254 429.501 565.051C439.386 576.311 449.52 587.215 459.886 597.761C466.673 590.581 473.646 583.727 480.795 577.186C472.447 568.556 464.262 559.677 456.25 550.551C424.449 514.326 396.839 475.87 373.39 435.8C363.163 438.812 352.989 442.015 342.874 445.419ZM372.585 434.421C362.359 437.437 352.186 440.645 342.072 444.053C306.77 383.814 280.376 320.138 262.799 254.916C274.654 255.45 286.565 256.109 298.521 256.887C314.991 318.106 339.651 377.861 372.585 434.421ZM374.921 435.351C398.279 475.214 425.765 513.475 457.411 549.524C465.418 558.644 473.598 567.517 481.941 576.141C491.423 567.533 501.209 559.474 511.273 551.936C504.613 544.957 498.067 537.807 491.641 530.486C462.297 497.062 436.774 461.598 415.041 424.649C401.59 427.902 388.212 431.464 374.921 435.351ZM414.222 423.253C400.775 426.512 387.402 430.079 374.115 433.971C341.245 377.589 316.619 318.022 300.152 256.994C315.203 257.985 330.325 259.163 345.496 260.514C361.008 316.652 383.891 371.405 414.222 423.253ZM416.615 424.27C438.246 460.988 463.632 496.232 492.801 529.459C499.257 536.812 505.833 543.993 512.525 551.002C522.477 543.606 532.699 536.717 543.164 530.306C536.818 523.668 530.583 516.865 524.464 509.895C498.319 480.113 475.427 448.589 455.764 415.771C442.656 418.326 429.602 421.154 416.615 424.27ZM454.919 414.357C441.82 416.917 428.774 419.752 415.794 422.873C385.514 371.196 362.657 316.62 347.142 260.661C361.446 261.946 375.794 263.384 390.166 264.964C405.035 316.555 426.595 366.805 454.919 414.357ZM457.383 415.457C476.932 448.02 499.672 479.304 525.625 508.867C531.806 515.908 538.106 522.779 544.519 529.48C556.366 522.284 568.522 515.698 580.949 509.684C575.022 503.492 569.201 497.144 563.49 490.638C540.444 464.387 520.143 436.662 502.565 407.822C487.448 410.023 472.381 412.561 457.383 415.457ZM501.691 406.383C486.584 408.592 471.525 411.139 456.535 414.042C428.251 366.652 406.707 316.571 391.829 265.148C408.405 266.982 425.013 269.004 441.624 271.197C455.654 317.93 475.654 363.386 501.691 406.383ZM504.233 407.58C521.684 436.14 541.817 463.6 564.65 489.61C570.46 496.228 576.385 502.684 582.419 508.977C595.309 502.796 608.489 497.227 621.915 492.227C615.319 485.471 608.868 478.506 602.57 471.333C583.182 449.262 565.919 426.046 550.763 401.937C535.217 403.481 519.699 405.354 504.233 407.58ZM549.844 400.471C534.313 402.024 518.809 403.906 503.356 406.141C477.345 363.297 457.352 317.997 443.308 271.419C460.067 273.643 476.83 276.039 493.567 278.59C506.955 320.803 525.693 361.777 549.844 400.471ZM552.488 401.767C567.501 425.573 584.578 448.502 603.735 470.31C610.168 477.637 616.762 484.747 623.507 491.638C637.221 486.584 651.189 482.121 665.368 478.203C658.996 471.733 652.78 465.051 646.728 458.158C629.926 439.02 614.9 418.915 601.636 398.043C585.239 398.937 568.848 400.17 552.488 401.767ZM600.686 396.543C584.299 397.447 567.917 398.691 551.566 400.3C527.428 361.749 508.686 320.921 495.277 278.852C513.487 281.639 531.666 284.609 549.777 287.738C561.993 325.48 578.942 362.048 600.686 396.543ZM603.413 397.948C616.52 418.49 631.342 438.283 647.893 457.135C654.118 464.225 660.518 471.092 667.082 477.733C680.962 473.945 695.041 470.676 709.279 467.885C705.725 464.112 702.224 460.262 698.778 456.337C682.087 437.311 667.341 417.223 654.523 396.31C637.5 396.509 620.454 397.045 603.413 397.948ZM653.584 394.77C636.557 394.982 619.505 395.531 602.459 396.446C580.714 362.085 563.75 325.65 551.506 288.038C571.172 291.448 590.756 295.045 610.213 298.8C620.625 332.036 635.063 364.271 653.584 394.77ZM656.331 396.29C668.991 416.846 683.522 436.596 699.943 455.314C703.594 459.473 707.307 463.547 711.08 467.535C726.001 464.654 741.094 462.294 756.31 460.407C754.502 458.431 752.71 456.432 750.934 454.409C734.97 436.218 721.004 416.927 709.015 396.795C702.086 396.594 695.149 396.445 688.204 396.349C677.594 396.202 666.967 396.18 656.331 396.29ZM708.081 395.217C701.47 395.03 694.851 394.89 688.225 394.799C677.294 394.648 666.346 394.629 655.387 394.749C636.853 364.372 622.39 332.256 611.945 299.135C631.842 302.986 651.603 307.001 671.178 311.149C680.036 340.238 692.32 368.462 708.081 395.217ZM710.855 396.849C722.682 416.597 736.423 435.524 752.099 453.386C754.112 455.679 756.146 457.942 758.202 460.175C762.324 459.675 766.456 459.209 770.595 458.777C782.343 457.55 794.157 456.593 806.013 455.884C804.997 454.758 803.988 453.624 802.984 452.481C788.345 435.797 775.625 418.052 764.8 399.5C746.904 398.291 728.911 397.396 710.855 396.849ZM763.862 397.883C745.965 396.687 727.97 395.804 709.914 395.27C694.128 368.625 681.811 340.507 672.915 311.518C692.976 315.779 712.84 320.179 732.454 324.683C739.979 350.008 750.433 374.574 763.862 397.883ZM766.673 399.628C777.333 417.768 789.818 435.125 804.149 451.458C805.423 452.909 806.706 454.345 807.999 455.768C824.73 454.807 841.543 454.337 858.379 454.297C857.256 453.061 856.141 451.813 855.035 450.552C842.31 436.044 831.271 420.593 821.894 404.418C803.618 402.511 785.198 400.902 766.673 399.628ZM820.94 402.76C802.667 400.866 784.25 399.27 765.728 398.009C752.261 374.798 741.765 350.323 734.195 325.083C754.439 329.742 774.413 334.51 794.057 339.352C800.478 361.314 809.425 382.59 820.94 402.76ZM823.808 404.619C833.011 420.354 843.801 435.393 856.2 449.53C857.612 451.138 859.037 452.726 860.476 454.294C878.188 454.289 895.921 454.756 913.605 455.624C911.436 453.338 909.303 451.001 907.207 448.614C896.968 436.95 888.03 424.546 880.376 411.56C861.706 408.954 842.836 406.626 823.808 404.619ZM879.381 409.856C860.72 407.265 841.861 404.951 822.844 402.958C811.277 382.875 802.278 361.676 795.805 339.783C805.663 342.217 815.437 344.669 825.12 347.135C835.536 349.786 845.846 352.454 856.041 355.13C861.579 374.144 869.345 392.509 879.381 409.856ZM882.343 411.836C889.807 424.354 898.477 436.319 908.368 447.586C910.814 450.372 913.311 453.089 915.858 455.736C934.542 456.689 953.168 458.085 971.652 459.841C969.326 457.445 967.05 454.98 964.825 452.446C956.241 442.668 948.771 432.248 942.397 421.318C922.655 417.868 902.619 414.689 882.343 411.836ZM941.388 419.569C921.645 416.132 901.609 412.967 881.335 410.129C871.228 392.857 863.395 374.554 857.796 355.591C879.797 361.377 901.257 367.205 922.083 373.015C926.581 389.225 933.001 404.849 941.388 419.569ZM944.404 421.67C950.581 432.104 957.77 442.059 965.986 451.418C968.602 454.399 971.291 457.282 974.049 460.07C993.226 461.925 1012.25 464.162 1031.02 466.687C1030.52 466.133 1030.02 465.575 1029.53 465.013C1021.05 455.347 1013.86 444.929 1007.96 433.938C987.176 429.576 965.967 425.463 944.404 421.67ZM1007.01 432.156C986.203 427.802 964.967 423.697 943.378 419.916C934.903 405.26 928.403 389.682 923.836 373.504C947.566 380.135 970.465 386.74 992.392 393.231C995.699 406.744 1000.56 419.802 1007.01 432.156ZM1009.95 434.358C1015.69 444.827 1022.59 454.757 1030.69 463.99C1031.59 465.01 1032.5 466.017 1033.41 467.01C1053.57 469.751 1073.44 472.821 1092.9 476.101C1085.76 467.749 1079.81 458.717 1075.02 449.172C1053.88 444.011 1032.16 439.044 1009.95 434.358ZM1074.12 447.358C1052.96 442.205 1031.22 437.246 1008.99 432.571C1002.44 420.266 997.502 407.24 994.125 393.744C1018.38 400.933 1041.43 407.978 1063.09 414.758C1065.45 426.066 1069.11 437.003 1074.12 447.358ZM1077.01 449.66C1081.9 459.167 1087.97 468.143 1095.22 476.415L1095.3 476.507C1116.35 480.079 1136.91 483.892 1156.84 487.796C1151.5 481.365 1147.07 474.411 1143.52 467.061C1122.12 461.112 1099.91 455.274 1077.01 449.66ZM1142.65 465.21C1121.23 459.269 1099 453.441 1076.09 447.839C1070.98 437.521 1067.22 426.6 1064.79 415.293C1089.97 423.186 1113.25 430.713 1134.31 437.682C1135.9 447.254 1138.66 456.499 1142.65 465.21ZM1145.53 467.62C1149.2 474.97 1153.77 481.899 1159.27 488.275C1181.15 492.58 1202.26 496.989 1222.39 501.3C1218.82 497.071 1215.84 492.501 1213.41 487.664C1191.88 480.953 1169.2 474.221 1145.53 467.62ZM1212.49 485.753C1190.96 479.057 1168.28 472.341 1144.63 465.758C1140.52 457.074 1137.65 447.829 1135.99 438.237L1136.71 438.476C1163.75 447.438 1187.07 455.453 1206.01 462.103C1206.93 470.406 1209.07 478.372 1212.49 485.753ZM1215.5 488.314C1217.92 492.9 1220.87 497.222 1224.36 501.214C1228.86 499.401 1233.33 497.462 1237.78 495.397C1230.5 493.044 1223.07 490.681 1215.5 488.314ZM1239.69 494.499L1239.72 494.398C1231.51 491.737 1223.11 489.063 1214.52 486.384C1210.93 479.028 1208.66 471.038 1207.65 462.68C1215.42 465.413 1222.43 467.908 1228.63 470.134C1239.39 474.002 1247.72 477.059 1253.35 479.15C1256.17 480.196 1258.31 481 1259.75 481.542C1260.29 481.742 1260.72 481.907 1261.06 482.035C1260.72 482.623 1260.39 483.221 1260.07 483.829C1253.36 487.688 1246.56 491.245 1239.69 494.499ZM1581.86 689.256C1910.27 370.353 1927.74 -162.113 1614.77 -518.79C1600.88 -511.806 1587.61 -504.474 1574.93 -496.795C1579.06 -492.283 1583.15 -487.718 1587.21 -483.098C1885.28 -143.569 1869.79 362.774 1558.8 666.938L1581.86 689.256ZM1585.91 -481.954C1581.79 -486.652 1577.63 -491.294 1573.42 -495.881C1560.25 -487.844 1547.72 -479.431 1535.81 -470.643C1543.45 -462.607 1550.97 -454.382 1558.35 -445.969C1840.77 -124.262 1827.26 354.741 1534.51 643.42L1557.56 665.737C1867.9 362.243 1883.41 -143.073 1585.91 -481.954ZM1557.12 -444.883C1549.71 -453.333 1542.16 -461.592 1534.48 -469.66C1522.22 -460.551 1510.63 -451.042 1499.67 -441.136C1509.87 -430.741 1519.84 -419.999 1529.58 -408.913C1746.74 -161.54 1779.42 183.795 1635.92 451.037L1648.64 457.053L1647.98 458.454L1639.14 454.271L1639.13 454.27L1635.19 452.404C1602.52 512.922 1560.81 569.411 1510.14 619.821L1533.33 642.28C1825.47 354.239 1839.01 -123.79 1557.12 -444.883ZM1528.42 -407.885C1518.69 -418.967 1508.72 -429.703 1498.52 -440.093C1488.79 -431.23 1479.57 -422.051 1470.84 -412.558C1482.21 -401.194 1493.28 -389.381 1504.04 -377.123C1535.59 -341.184 1563.02 -303.05 1586.35 -263.322C1595.79 -268.474 1605.63 -273.292 1615.9 -277.751L1616.52 -276.329C1606.31 -271.895 1596.52 -267.105 1587.13 -261.983C1714.63 -43.7974 1718.83 222.149 1604.64 436.267C1614.29 440.808 1624.25 445.514 1634.52 450.373C1777.76 183.695 1745.18 -160.969 1528.42 -407.885ZM1444.27 -380.681C1452.25 -391.263 1460.76 -401.508 1469.8 -411.413C1481.12 -400.086 1492.16 -388.313 1502.88 -376.095C1534.35 -340.244 1561.71 -302.205 1584.99 -262.577C1573.74 -256.377 1563.07 -249.702 1552.95 -242.593C1531.82 -277.869 1507.22 -311.759 1479.11 -343.779C1467.85 -356.603 1456.23 -368.905 1444.27 -380.681ZM1443.33 -379.43C1435.49 -368.975 1428.17 -358.192 1421.33 -347.085C1432.43 -336.143 1443.23 -324.715 1453.69 -312.804C1479.88 -282.967 1502.81 -251.382 1522.5 -218.5C1531.67 -226.653 1541.39 -234.4 1551.68 -241.698C1530.59 -276.927 1506.02 -310.774 1477.95 -342.752C1466.76 -355.496 1455.21 -367.723 1443.33 -379.43ZM1420.49 -345.728C1412.94 -333.371 1405.99 -320.614 1399.62 -307.46C1409.82 -297.404 1419.74 -286.904 1429.35 -275.961C1453.56 -248.385 1474.74 -219.183 1492.91 -188.77C1501.74 -198.785 1511.19 -208.365 1521.32 -217.449C1501.65 -250.342 1478.73 -281.935 1452.53 -311.776C1442.17 -323.569 1431.49 -334.887 1420.49 -345.728ZM1398.9 -305.984C1392.47 -292.587 1386.62 -278.781 1381.35 -264.568C1389.47 -256.425 1397.38 -247.97 1405.07 -239.205C1428.49 -212.521 1448.89 -184.168 1466.29 -154.59C1474.14 -166.003 1482.65 -177.012 1491.84 -187.546C1473.66 -218.032 1452.45 -247.301 1428.19 -274.933C1418.72 -285.715 1408.95 -296.066 1398.9 -305.984ZM1380.76 -262.965C1375.94 -249.85 1371.6 -236.391 1367.73 -222.59C1375.18 -215.137 1382.44 -207.394 1389.5 -199.36C1411.04 -174.825 1429.81 -148.673 1445.81 -121.331C1451.81 -132.237 1458.3 -142.869 1465.33 -153.177C1447.89 -182.898 1427.42 -211.384 1403.9 -238.182C1396.39 -246.741 1388.67 -255.002 1380.76 -262.965ZM1360.25 -193.013C1358.96 -187.346 1357.75 -181.625 1356.61 -175.85C1365.49 -167.315 1374.08 -158.334 1382.35 -148.91C1399.83 -129.002 1415.17 -107.904 1428.4 -85.8939C1433.43 -97.4171 1438.94 -108.719 1444.94 -119.745C1428.89 -147.293 1410.02 -173.637 1388.33 -198.337C1381.5 -206.123 1374.47 -213.636 1367.25 -220.874C1364.72 -211.736 1362.38 -202.449 1360.25 -193.013ZM1356.25 -174.04C1353.2 -158.39 1350.66 -142.349 1348.6 -125.921C1357.86 -117.263 1366.78 -108.073 1375.31 -98.3525C1389.63 -82.0537 1402.33 -64.9095 1413.45 -47.0984C1417.69 -59.6476 1422.41 -72.0168 1427.64 -84.1441C1414.33 -106.42 1398.85 -127.764 1381.19 -147.887C1373.17 -157.023 1364.85 -165.741 1356.25 -174.04ZM1348.36 -124.017C1346.32 -107.42 1344.77 -90.4291 1343.69 -73.0474C1352.19 -65.1711 1360.36 -56.7889 1368.17 -47.902C1380.43 -33.9365 1391.33 -19.2618 1400.88 -4.0202L1400.98 -4.41162C1404.41 -18.1561 1408.33 -31.774 1412.81 -45.1904C1401.58 -63.3217 1388.69 -80.7643 1374.15 -97.3293C1365.9 -106.722 1357.29 -115.619 1348.36 -124.017ZM1343.57 -71.0426C1342.52 -53.5046 1341.95 -35.5704 1341.82 -17.2431C1348.47 -10.9742 1354.88 -4.34137 1361.02 2.65472C1372.39 15.6002 1382.39 29.2568 1391.04 43.4764C1393.6 28.2628 1396.68 13.0987 1400.36 -1.91882C1390.66 -17.5504 1379.55 -32.5884 1367 -46.8789C1359.52 -55.3996 1351.7 -63.4546 1343.57 -71.0426ZM1341.81 -15.1183C1341.72 3.25323 1342.08 22.0181 1342.86 41.173C1346.68 44.9801 1350.39 48.9366 1354 53.0422C1365.8 66.4875 1375.88 80.9159 1384.25 96.0858C1385.79 79.3668 1387.9 62.5721 1390.65 45.8311C1381.83 31.1275 1371.57 17.0216 1359.86 3.67767C1354.07 -2.91162 1348.05 -9.17712 1341.81 -15.1183ZM1352.84 54.0699C1349.63 50.4169 1346.34 46.8826 1342.96 43.4671C1343.69 60.7047 1344.77 78.257 1346.17 96.1216C1349.47 99.3856 1352.67 102.784 1355.77 106.317C1365.79 117.733 1374.3 130.024 1381.31 142.98C1381.81 128.4 1382.68 113.665 1384 98.8649C1375.46 83.046 1365.09 68.0232 1352.84 54.0699ZM1351.87 155.424C1349.69 136.113 1347.85 117.139 1346.36 98.5031C1349.18 101.349 1351.94 104.297 1354.61 107.344C1365.16 119.362 1374.02 132.362 1381.21 146.097C1380.76 161.133 1380.71 175.997 1381.01 190.589C1376.2 182.821 1370.72 175.387 1364.54 168.359C1360.51 163.777 1356.28 159.465 1351.87 155.424ZM1352.14 157.785C1354.34 177.144 1356.88 196.84 1359.72 216.869C1364.51 220.963 1369.04 225.43 1373.29 230.271L1373.29 230.273C1377.05 234.594 1380.5 239.095 1383.62 243.754C1382.37 227.558 1381.49 210.815 1381.08 193.687C1375.99 185.162 1370.1 177.029 1363.38 169.382C1359.79 165.301 1356.04 161.435 1352.14 157.785ZM1360.06 219.215C1362.93 239.252 1366.11 259.622 1369.58 280.323C1374.01 283.906 1378.18 287.894 1382.03 292.289C1384.95 295.604 1387.63 299.11 1390.06 302.751C1387.58 285.164 1385.46 266.474 1383.88 246.968C1380.39 241.522 1376.47 236.286 1372.12 231.292C1368.32 226.965 1364.29 222.939 1360.06 219.215ZM1369.97 282.658C1373.42 303.161 1377.16 323.988 1381.16 345.135C1381.89 345.695 1382.6 346.27 1383.31 346.86C1386.96 338.44 1390.15 329.913 1392.88 321.322C1392.09 316.459 1391.32 311.494 1390.59 306.434C1387.73 301.832 1384.49 297.422 1380.87 293.313L1380.87 293.311C1377.47 289.442 1373.83 285.891 1369.97 282.658ZM1553.05 715.968C1221.2 1009.78 721.076 993.395 393.904 692.711C399.879 681.561 406.156 670.895 412.717 660.695C724.486 957.912 1209.19 977.809 1529.31 694.388C1539.03 685.782 1548.49 676.99 1557.69 668.021L1580.74 690.336C1571.74 699.042 1562.51 707.589 1553.05 715.968ZM1528.17 693.09C1208.67 975.958 724.817 956.062 413.671 659.219C420.474 648.733 427.578 638.744 434.965 629.231C730.626 920.604 1197.44 943.324 1504.36 671.597C1514.33 662.77 1524.01 653.737 1533.41 644.507L1556.45 666.82C1547.28 675.756 1537.85 684.516 1528.17 693.09ZM1503.27 670.365C1197 941.533 731.054 918.854 435.979 627.929C443.662 618.115 451.647 608.812 459.912 599.997C739.437 883.228 1186.59 907.906 1479.42 648.653C1489.6 639.631 1499.48 630.38 1509.04 620.914L1532.23 643.368C1522.86 652.566 1513.21 661.569 1503.27 670.365ZM1478.39 647.488C1186.21 906.177 739.953 881.58 460.976 598.868C467.759 591.689 474.729 584.838 481.875 578.301C526.917 624.673 576.688 663.848 629.654 695.708C627.755 698.695 625.882 701.72 624.035 704.785L625.363 705.585C627.21 702.52 629.084 699.494 630.984 696.506C888.927 850.912 1222.2 832.163 1454.22 626.735C1464.86 617.314 1475.14 607.632 1485.06 597.705L1507.92 619.835C1498.39 629.272 1488.55 638.494 1478.39 647.488ZM630.489 694.4C577.637 662.613 527.971 623.526 483.022 577.256C492.502 568.652 502.288 560.598 512.353 553.066C554.618 597.161 601.437 634.405 651.341 664.689C644.088 674.134 637.132 684.033 630.489 694.4ZM652.295 663.453C602.501 633.254 555.783 596.111 513.606 552.132C523.562 544.74 533.79 537.856 544.262 531.452C584.092 572.913 628.259 607.86 675.361 636.193C667.38 644.822 659.685 653.904 652.295 663.453ZM676.44 635.031C629.443 606.795 585.37 571.96 545.619 530.626C557.474 523.438 569.639 516.863 582.078 510.86C619.154 549.384 660.311 581.793 704.23 607.996C694.629 616.462 685.358 625.466 676.44 635.031ZM705.456 606.92C661.631 580.825 620.557 548.54 583.55 510.153C596.457 503.982 609.655 498.425 623.102 493.439C657.671 528.621 696.183 558.1 737.348 581.795C726.364 589.575 715.724 597.941 705.456 606.92ZM738.745 580.81C697.66 557.234 659.215 527.888 624.698 492.85C638.429 487.812 652.416 483.366 666.616 479.466C698.389 511.493 733.965 538.278 772.098 559.735C760.672 566.212 749.544 573.229 738.745 580.81ZM773.679 558.843C735.605 537.517 700.076 510.873 668.336 478.997C682.217 475.233 696.299 471.987 710.539 469.218C738.589 498.752 769.909 523.576 803.482 543.619C793.344 548.315 783.404 553.385 773.679 558.843ZM805.191 542.831C771.664 522.927 740.377 498.249 712.348 468.869C727.275 466.012 742.376 463.675 757.601 461.81C782.236 488.465 809.836 510.783 839.515 528.766C827.851 533.013 816.402 537.695 805.191 542.831ZM841.394 528.086C811.732 510.249 784.138 488.08 759.501 461.58C763.246 461.132 766.997 460.711 770.756 460.319C782.893 459.052 795.099 458.073 807.35 457.358C828.747 480.803 852.706 500.47 878.494 516.37C865.914 519.822 853.539 523.72 841.394 528.086ZM880.552 515.809C854.751 500.06 830.77 480.541 809.349 457.244C826.102 456.307 842.938 455.861 859.796 455.845C878.359 475.978 899.147 492.826 921.538 506.407C907.667 509.053 893.994 512.178 880.552 515.809ZM923.833 505.974C901.384 492.547 880.533 475.843 861.91 455.845C879.664 455.865 897.44 456.359 915.166 457.254C931.378 474.028 949.557 488.027 969.15 499.248C953.845 500.963 938.726 503.194 923.833 505.974ZM971.796 498.956C952.076 487.895 933.772 474.031 917.444 457.371C936.164 458.352 954.825 459.776 973.342 461.56C986.868 475.158 1002.02 486.468 1018.36 495.494C1002.68 496.154 987.147 497.298 971.796 498.956ZM1021.4 495.372C1004.85 486.506 989.488 475.315 975.778 461.796C994.924 463.674 1013.91 465.93 1032.65 468.472C1042.15 478.707 1052.71 487.517 1064.1 494.899C1049.77 494.683 1035.53 494.833 1021.4 495.372ZM1067.06 494.949C1055.49 487.693 1044.75 478.977 1035.09 468.805C1055.23 471.566 1075.07 474.652 1094.51 477.945C1100.95 485.208 1108.04 491.621 1115.65 497.183C1099.38 496.003 1083.17 495.247 1067.06 494.949ZM1118.62 497.403C1110.83 491.935 1103.57 485.589 1096.97 478.364C1118 481.953 1138.54 485.78 1158.45 489.693C1158.53 489.786 1158.61 489.879 1158.69 489.971C1162.92 494.782 1167.54 499.108 1172.48 502.948C1154.48 500.62 1136.51 498.757 1118.62 497.403ZM1175.58 503.354C1170.34 499.501 1165.45 495.113 1160.97 490.19C1181.71 494.286 1201.75 498.47 1220.92 502.572C1211.12 506.372 1201.21 509.576 1191.26 512.183C1194.11 510.742 1197.02 509.493 1199.99 508.432L1200.01 508.435L1200.01 508.425L1200.22 508.351L1200.39 508.292L1200.16 507.456L1200.25 506.903L1200 506.865L1199.99 506.799L1199.8 506.833C1191.73 505.584 1183.65 504.422 1175.58 503.354ZM1223.75 503.178L1223.66 503.158C1211.25 508.088 1198.66 512.066 1186.02 515.09C1182.94 516.96 1179.95 519.067 1177.06 521.415C1205.12 513.886 1232.71 502.2 1258.85 486.344L1258.87 486.295C1247.4 492.777 1235.66 498.385 1223.76 503.117L1223.75 503.178ZM1585.77 -261.238C1713.05 -43.4789 1717.22 221.943 1603.24 435.606C1592.34 430.48 1581.84 425.566 1571.73 420.884C1654.03 267.376 1671.74 85.6987 1622.72 -82.7214C1624.41 -83.2066 1626.11 -83.6763 1627.82 -84.1302L1627.42 -85.6287C1625.7 -85.1714 1623.99 -84.6984 1622.29 -84.2098C1606.38 -138.407 1583.56 -191.217 1553.75 -241.258C1563.86 -248.367 1574.53 -255.042 1585.77 -261.238ZM1570.32 420.232C1652.46 267.069 1670.15 85.7776 1621.24 -82.2901C1609.54 -78.8586 1598.27 -74.6818 1587.42 -69.819C1602.35 -18.6497 1610.68 33.8584 1612.5 86.38C1617.35 85.4785 1622.32 84.6205 1627.39 83.8068L1627.64 85.3378C1622.5 86.1625 1617.47 87.0326 1612.55 87.9474C1614.34 143.639 1608.8 199.331 1596.01 253.443C1606.18 254.605 1616.74 255.946 1627.72 257.434L1627.52 258.971C1616.47 257.474 1605.85 256.127 1595.65 254.963C1583.19 307.127 1563.99 357.809 1538.14 405.589C1548.4 410.169 1559.13 415.058 1570.32 420.232ZM1552.48 -240.362C1582.19 -190.465 1604.94 -137.812 1620.8 -83.7784C1609.11 -80.347 1597.83 -76.1757 1586.98 -71.3233C1572.17 -121.661 1550.96 -170.689 1523.31 -217.144C1532.47 -225.305 1542.19 -233.06 1552.48 -240.362ZM1522.13 -216.091C1549.68 -169.763 1570.8 -120.873 1585.56 -70.6813C1574 -65.4284 1562.93 -59.3996 1552.36 -52.6666C1538.74 -99.1845 1519.22 -144.473 1493.75 -187.37C1502.56 -197.401 1512.01 -206.996 1522.13 -216.091ZM1574.24 94.9304C1572.76 46.1021 1565.19 -2.7005 1551.45 -50.2351C1540.74 -43.2961 1530.56 -35.6252 1520.91 -27.2993C1533.31 16.0505 1540.25 60.5208 1541.74 105.014C1551.87 101.366 1562.69 97.9993 1574.24 94.9304ZM1492.68 -186.143C1518.04 -143.354 1537.46 -98.1857 1551 -51.7958C1540.29 -44.8808 1530.09 -37.2392 1520.44 -28.9468C1508.03 -71.7994 1490.28 -113.542 1467.16 -153.113C1475 -164.553 1483.49 -175.587 1492.68 -186.143ZM1466.19 -151.694C1489.19 -112.213 1506.83 -70.5724 1519.14 -27.8318C1510.86 -20.6339 1502.98 -12.9551 1495.5 -4.84363C1484.19 -44.5759 1467.92 -83.2241 1446.72 -119.769C1452.7 -130.703 1459.18 -141.362 1466.19 -151.694ZM1514.51 116.239C1513.13 76.0768 1506.96 35.9806 1495.99 -3.0838C1503.46 -11.2338 1511.34 -18.9483 1519.62 -26.1781C1531.91 16.9938 1538.77 61.2726 1540.2 105.569C1531.09 108.901 1522.53 112.462 1514.51 116.239ZM1512.98 116.963C1511.67 77.0199 1505.59 37.1359 1494.76 -1.7326C1487.78 5.97131 1481.17 14.0574 1474.92 22.4852C1484.56 57.2135 1489.9 92.9287 1491.01 128.805C1497.84 124.657 1505.15 120.706 1512.98 116.963ZM1445.85 -118.175C1466.92 -81.7009 1483.07 -43.1378 1494.27 -3.50177C1487.28 4.16351 1480.65 12.2084 1474.39 20.5924C1464.13 -15.7761 1449.15 -51.0435 1429.38 -84.2585C1434.39 -95.8051 1439.87 -107.128 1445.85 -118.175ZM1428.62 -82.4981C1448.24 -49.3331 1463.09 -14.1273 1473.22 22.1686C1467.18 30.3658 1461.48 38.8817 1456.13 47.6793C1446.55 15.389 1432.7 -15.902 1414.51 -45.3893C1418.72 -57.9608 1423.41 -70.351 1428.62 -82.4981ZM1471.93 141.822C1470.52 110.695 1465.47 79.7706 1456.72 49.6969C1462.05 40.8611 1467.72 32.3081 1473.75 24.0754C1483.23 58.599 1488.45 94.0918 1489.48 129.738C1483.23 133.602 1477.39 137.633 1471.93 141.822ZM1470.43 142.986C1469.11 112.09 1464.2 81.3888 1455.63 51.519C1449.73 61.4486 1444.28 71.7289 1439.28 82.308C1446.46 107.495 1450.68 133.384 1452.02 159.499C1457.59 153.764 1463.71 148.253 1470.43 142.986ZM1413.87 -43.4672C1431.9 -14.0095 1445.61 17.2417 1455.04 49.4814C1449.13 59.3452 1443.65 69.5568 1438.63 80.0649C1430.27 51.489 1418.1 23.8394 1402.02 -2.18353C1402.17 -2.80133 1402.33 -3.41888 1402.48 -4.03619C1405.8 -17.324 1409.58 -30.4902 1413.87 -43.4672ZM1401.5 -0.0618896C1417.42 25.9681 1429.43 53.6176 1437.62 82.1829C1432.2 93.6989 1427.32 105.564 1422.98 117.712C1416.13 92.6277 1405.92 68.3612 1392.27 45.5189C1394.8 30.2452 1397.85 15.0187 1401.5 -0.0618896ZM1423.69 120.347C1427.99 108.076 1432.86 96.0903 1438.27 84.4585C1445.25 109.458 1449.32 135.142 1450.54 161.041C1444 167.939 1438.26 175.151 1433.22 182.643C1432.21 161.571 1429.05 140.698 1423.69 120.347ZM1391.88 47.9056C1405.37 70.8198 1415.41 95.1562 1422.07 120.301C1417.14 134.403 1412.95 148.876 1409.51 163.618C1404.58 140.993 1396.63 119.102 1385.58 98.536C1387.09 81.6969 1389.16 64.7756 1391.88 47.9056ZM1422.77 122.999C1417.83 137.393 1413.66 152.171 1410.27 167.221C1413.56 183.451 1415.32 200.04 1415.55 216.771C1419.82 205.683 1425.15 195.014 1431.76 184.848C1430.9 163.937 1427.92 143.215 1422.77 122.999ZM1385.33 101.379C1396.25 122.194 1404.01 144.348 1408.68 167.227C1406.12 178.674 1404 190.277 1402.34 201.987C1398.52 182.386 1392.02 163.459 1382.78 145.733C1383.22 131.079 1384.06 116.264 1385.33 101.379ZM1409.43 171.022C1406.88 182.828 1404.82 194.796 1403.24 206.872C1405.54 220.29 1406.61 234 1406.47 247.837C1408.41 238.625 1410.9 229.625 1414.03 220.874C1414.04 204.054 1412.52 187.363 1409.43 171.022ZM1382.68 148.958C1391.88 167.226 1398.18 186.743 1401.67 206.935C1400.63 214.944 1399.81 222.999 1399.2 231.086C1395.22 217.885 1389.71 205.187 1382.62 193.244C1382.28 178.725 1382.28 163.93 1382.68 148.958ZM1402.55 212.43C1401.65 220.059 1400.95 227.727 1400.44 235.422C1402.24 241.982 1403.66 248.657 1404.71 255.418C1405.33 240.916 1404.62 226.523 1402.55 212.43ZM1382.7 196.466C1389.75 208.813 1395.13 221.946 1398.88 235.589C1398.1 247.547 1397.8 259.568 1397.98 271.601C1394.66 262.851 1390.48 254.435 1385.39 246.458C1384.09 230.298 1383.16 213.579 1382.7 196.466ZM1400.14 240.438C1399.49 252.307 1399.32 264.233 1399.62 276.169C1400.33 278.26 1401 280.369 1401.61 282.494C1402.16 275.398 1402.94 268.389 1404 261.483C1403.12 254.371 1401.83 247.344 1400.14 240.438ZM1385.67 249.843C1390.78 258.277 1394.91 267.186 1398.08 276.447C1398.26 283.525 1398.61 290.605 1399.13 297.677L1399.21 297.671C1398.16 302.495 1396.97 307.311 1395.63 312.112C1394.52 310.008 1393.34 307.932 1392.08 305.892C1389.52 288.256 1387.32 269.474 1385.67 249.843ZM1399.8 281.826C1399.93 285.321 1400.11 288.816 1400.32 292.31C1400.66 290.559 1400.99 288.808 1401.29 287.056C1401.31 286.799 1401.32 286.543 1401.34 286.286L1401.07 286.357C1400.67 284.839 1400.25 283.328 1399.8 281.826ZM1586 -69.1754C1574.44 -63.9108 1563.37 -57.8647 1552.81 -51.1094C1566.63 -3.42572 1574.26 45.5353 1575.78 94.5255C1586.83 91.6306 1598.54 89.0061 1610.96 86.6676C1609.17 34.2681 1600.87 -18.1202 1586 -69.1754ZM1594.46 253.267C1607.23 199.309 1612.77 143.773 1611.01 88.2356C1598.59 90.5814 1586.87 93.2136 1575.82 96.1161C1577.29 147.882 1571.92 199.665 1559.82 249.993C1570.8 250.788 1582.34 251.898 1594.46 253.267ZM1541.79 106.643C1551.91 102.983 1562.73 99.6036 1574.29 96.5226C1575.71 148.117 1570.34 199.726 1558.25 249.882C1547.4 249.123 1537.1 248.678 1527.32 248.602C1538.41 202.176 1543.24 154.404 1541.79 106.643ZM1540.26 107.202C1531.13 110.552 1522.57 114.131 1514.56 117.928C1515.92 162.12 1511.47 206.375 1501.18 249.407C1508.96 248.82 1517.14 248.561 1525.73 248.593C1536.81 202.357 1541.66 154.777 1540.26 107.202ZM1513.03 118.658C1505.19 122.43 1497.88 126.411 1491.06 130.59C1492.16 171.401 1487.79 212.404 1478.04 252.382C1484.84 251.093 1492 250.156 1499.55 249.536C1509.84 206.706 1514.33 162.654 1513.03 118.658ZM1489.53 131.533C1483.28 135.431 1477.45 139.496 1472.02 143.718C1473.55 181.492 1469.73 219.545 1460.66 256.722C1464.81 255.402 1469.14 254.259 1473.63 253.281C1474.53 253.083 1475.44 252.893 1476.36 252.709C1486.13 212.939 1490.55 172.145 1489.53 131.533ZM1470.51 144.9C1463.78 150.237 1457.66 155.82 1452.12 161.628C1453.66 195.896 1450.23 230.529 1441.95 264.45C1447.27 261.66 1452.92 259.283 1458.92 257.285C1468.04 220.32 1471.93 182.476 1470.51 144.9ZM1450.63 163.205C1444.08 170.247 1438.34 177.615 1433.33 185.276C1434.53 215.749 1431.24 246.612 1423.59 276.895C1424.04 276.5 1424.5 276.111 1424.97 275.726C1429.67 271.828 1434.71 268.412 1440.11 265.438C1448.47 231.722 1452.02 197.289 1450.63 163.205ZM1431.86 187.569C1425.13 198.24 1419.78 209.463 1415.58 221.145C1415.54 246.932 1411.91 273.012 1404.79 298.598C1409.74 291 1415.31 284.408 1421.52 278.73C1429.34 248.618 1432.83 217.91 1431.86 187.569ZM1413.99 225.773C1410.56 236.135 1408 246.842 1406.15 257.831C1405.64 267.596 1404.53 277.404 1402.83 287.198C1402.79 287.936 1402.74 288.676 1402.7 289.416L1402.44 289.401C1401.08 296.849 1399.39 304.286 1397.35 311.686C1398.76 308.835 1400.24 306.097 1401.78 303.469C1409.41 277.853 1413.51 251.686 1413.99 225.773ZM1393.9 323.212L1394.43 321.908C1396 318.102 1397.66 314.476 1399.42 311.025C1395.33 323.531 1390.39 335.885 1384.62 347.992L1384.53 347.912C1388.08 339.766 1391.2 331.521 1393.9 323.212ZM1393.92 317.994C1394.29 316.761 1394.66 315.526 1395.01 314.29C1394.27 312.828 1393.49 311.377 1392.67 309.942C1393.08 312.655 1393.49 315.339 1393.92 317.994ZM1403.19 304.116C1408.32 295.391 1414.17 287.915 1420.77 281.557C1413.3 309.298 1402.15 336.504 1387.42 362.419C1384.16 362.822 1381.05 363.418 1378.06 364.217C1388.66 344.814 1397.06 324.643 1403.19 304.116ZM1422.9 279.57C1415.49 307.917 1404.26 335.729 1389.31 362.207C1393.22 361.82 1397.31 361.702 1401.6 361.842C1418.65 331.719 1431.35 299.956 1439.59 267.506C1434.75 270.266 1430.21 273.394 1425.96 276.92C1424.92 277.779 1423.9 278.663 1422.9 279.57ZM1441.45 266.474C1433.24 299.301 1420.5 331.439 1403.33 361.912C1407.59 362.118 1412.03 362.57 1416.67 363.258C1435.48 330.081 1449.45 295 1458.48 259.072C1452.44 261.135 1446.77 263.591 1441.45 266.474ZM1460.22 258.491C1451.21 294.704 1437.21 330.067 1418.31 363.509C1422.69 364.203 1427.24 365.103 1431.96 366.199C1451.62 330.645 1466.31 293.001 1475.95 254.374C1475.28 254.511 1474.62 254.652 1473.96 254.796C1469.18 255.836 1464.61 257.063 1460.22 258.491ZM1477.63 254.039C1468 292.907 1453.27 330.79 1433.53 366.568C1439.43 367.976 1445.59 369.683 1452.04 371.674C1473.29 333.459 1488.99 292.88 1499.17 251.123C1491.6 251.76 1484.43 252.72 1477.63 254.039ZM1500.8 250.991C1490.62 292.954 1474.88 333.737 1453.56 372.144C1460.43 374.296 1467.62 376.763 1475.14 379.525C1497.73 338.497 1514.47 294.958 1525.35 250.141C1516.75 250.118 1508.57 250.388 1500.8 250.991ZM1526.95 250.149C1516.06 295.149 1499.27 338.869 1476.61 380.068C1485.28 383.279 1494.39 386.881 1503.97 390.845C1528.12 346.6 1546.11 299.686 1557.88 251.411C1547.02 250.655 1536.71 250.217 1526.95 250.149ZM1559.45 251.522C1547.66 299.963 1529.62 347.042 1505.41 391.442C1515.34 395.571 1525.77 400.086 1536.72 404.957C1562.51 357.322 1581.66 306.795 1594.1 254.787C1581.97 253.418 1570.42 252.311 1559.45 251.522ZM1633.79 451.74C1623.51 446.88 1613.56 442.175 1603.91 437.636C1573.15 495.011 1533.86 548.643 1486.16 596.607L1509.02 618.743C1559.57 568.458 1601.19 512.109 1633.79 451.74ZM1570.99 422.252C1581.11 426.934 1591.61 431.847 1602.51 436.975C1571.81 494.201 1532.63 547.691 1485.04 595.529L1460.17 571.449C1505 526.395 1541.97 476.066 1570.99 422.252ZM1537.39 406.956C1547.66 411.535 1558.38 416.424 1569.58 421.6C1540.64 475.26 1503.76 525.445 1459.06 570.371L1433.75 545.869C1475.56 503.861 1510.14 457.011 1537.39 406.956ZM1504.66 392.81C1514.59 396.937 1525.02 401.451 1535.97 406.324C1508.79 456.218 1474.32 502.917 1432.63 544.791L1408.39 521.324C1447.15 482.412 1479.26 439.076 1504.66 392.81ZM1475.85 381.441C1484.52 384.648 1493.64 388.248 1503.22 392.213C1477.9 438.304 1445.89 481.477 1407.28 520.246L1386.12 499.764C1422.33 463.959 1452.24 424.059 1475.85 381.441ZM1452.79 373.528C1459.65 375.67 1466.84 378.132 1474.38 380.898C1450.85 423.322 1421.05 463.04 1385.01 498.685L1368.82 483.012C1402.73 449.915 1430.71 412.987 1452.79 373.528ZM1432.75 367.976C1438.63 369.371 1444.8 371.07 1451.27 373.059C1429.29 412.295 1401.44 449.016 1367.71 481.933L1355.63 470.245C1386.58 439.209 1412.31 404.713 1432.75 367.976ZM1417.49 364.95C1421.87 365.629 1426.43 366.518 1431.18 367.61C1410.84 404.085 1385.26 438.337 1354.52 469.166L1344.5 459.466C1373.81 430.7 1398.17 398.822 1417.49 364.95ZM1402.48 363.425C1406.73 363.601 1411.18 364.03 1415.85 364.704C1396.64 398.268 1372.45 429.862 1343.38 458.388L1335.39 450.65C1362.32 424.048 1384.72 394.621 1402.48 363.425ZM1388.37 363.866C1392.28 363.422 1396.4 363.259 1400.73 363.367C1383.1 394.186 1360.91 423.263 1334.28 449.571L1327.42 442.935C1351.88 418.769 1372.24 392.088 1388.37 363.866ZM631.819 695.198C889.209 849.25 1221.72 830.511 1453.2 625.57C1463.81 616.177 1474.06 606.524 1483.95 596.627L1459.08 572.547C1449.74 581.889 1440.06 591.002 1430.04 599.871C1395.7 630.273 1359.02 656.354 1320.65 678.161C1326.73 687.305 1333.01 696.168 1339.4 704.609L1338.17 705.545C1331.73 697.052 1325.41 688.131 1319.3 678.928C1112.56 795.76 856.934 788.806 652.677 665.498C645.421 674.938 638.462 684.833 631.819 695.198ZM653.631 664.261C857.364 787.179 1112.27 794.091 1318.44 677.63C1312.03 667.922 1305.86 657.908 1300.05 647.756C1154.21 729.972 982.864 747.01 825.629 701.701C825.547 701.898 825.465 702.095 825.383 702.292C825.193 702.75 825.003 703.21 824.814 703.671C824.583 704.235 824.353 704.8 824.124 705.367L822.687 704.787L822.849 704.386L823.017 703.97C823.105 703.755 823.192 703.541 823.28 703.327L823.464 702.876L823.741 702.205L823.857 701.924C823.948 701.705 824.039 701.486 824.13 701.267C773.034 686.406 723.445 664.954 676.722 637.01C668.731 645.635 661.028 654.713 653.631 664.261ZM677.803 635.848C724.38 663.672 773.809 685.03 824.735 699.825C829.593 688.326 834.95 677.484 840.751 667.267C793.917 653.733 748.472 634.226 705.635 608.832C696.018 617.289 686.733 626.287 677.803 635.848ZM706.864 607.755C749.57 633.021 794.867 652.423 841.544 665.88C848.064 654.539 855.135 643.974 862.679 634.14C819.75 622.267 778.097 605.081 738.836 582.649C727.823 590.419 717.155 598.78 706.864 607.755ZM740.239 581.663C779.388 603.96 820.913 621.033 863.703 632.813C871.04 623.368 878.816 614.603 886.964 606.478C847.652 595.936 809.549 580.628 773.685 560.624C762.225 567.087 751.067 574.092 740.239 581.663ZM775.274 559.733C811.048 579.594 849.045 594.778 888.24 605.213C894.258 599.289 900.474 593.709 906.862 588.458C871.49 578.246 837.274 563.6 805.103 544.582C794.956 549.254 785.007 554.299 775.274 559.733ZM806.822 543.795C838.922 562.663 873.051 577.173 908.324 587.264C916.266 580.823 924.468 574.882 932.877 569.412C900.925 560.291 870.105 547.085 841.226 529.796C829.534 534.02 818.058 538.68 806.822 543.795ZM843.119 529.117C871.958 546.248 902.726 559.307 934.614 568.29C943.333 562.704 952.27 557.616 961.366 552.994C933.059 544.81 905.805 532.975 880.309 517.481C867.698 520.905 855.292 524.776 843.119 529.117ZM882.387 516.921C907.882 532.256 935.126 543.935 963.413 551.964C973.884 546.737 984.56 542.12 995.355 538.059C970.239 531.181 946.089 521.036 923.532 507.606C909.606 510.22 895.88 513.317 882.387 516.921ZM925.858 507.174C948.481 520.451 972.696 530.429 997.866 537.126C1010.3 532.557 1022.88 528.72 1035.47 525.534C1013.07 520.097 991.54 511.767 971.453 500.55C956.053 502.226 940.841 504.423 925.858 507.174ZM974.153 500.262C994.437 511.348 1016.18 519.501 1038.77 524.714C1051.62 521.582 1064.47 519.12 1077.18 517.244C1057.49 513.071 1038.59 506.303 1021.02 496.935C1005.24 497.546 989.602 498.644 974.153 500.262ZM1024.16 496.82C1042.2 506.127 1061.61 512.715 1081.81 516.586C1089.4 515.548 1096.93 514.717 1104.38 514.074C1091.1 509.722 1078.43 503.859 1066.6 496.489C1052.36 496.232 1038.2 496.334 1024.16 496.82ZM1069.67 496.549C1081.81 503.856 1094.84 509.587 1108.46 513.74C1119.97 512.848 1131.27 512.402 1142.24 512.335C1133.76 508.685 1125.67 504.213 1118.08 498.916C1101.86 497.696 1085.71 496.896 1069.67 496.549ZM1121.18 499.154C1129.06 504.42 1137.47 508.811 1146.26 512.327C1154.43 512.345 1162.41 512.573 1170.15 512.98C1174.51 511.965 1178.81 511.025 1183.02 510.144C1180.27 508.505 1177.59 506.737 1174.98 504.839C1157.01 502.467 1139.06 500.557 1121.18 499.154ZM1178.29 505.281C1180.57 506.842 1182.9 508.307 1185.29 509.674C1188.66 508.982 1191.98 508.327 1195.23 507.703C1189.58 506.851 1183.94 506.043 1178.29 505.281ZM826.235 700.259C983.029 745.391 1153.87 728.376 1299.28 646.408C1293.65 636.521 1288.37 626.51 1283.53 616.53C1238.57 641.919 1191.04 660.683 1142.27 672.912C1144 683.091 1146.28 693.747 1149.15 704.884L1147.65 705.27C1144.78 694.14 1142.5 683.48 1140.76 673.288C1092.43 685.267 1042.9 690.837 993.459 690.086C992.804 694.966 992.265 699.983 991.848 705.14L990.303 705.015C990.717 699.894 991.251 694.911 991.899 690.061C941.454 689.159 891.123 681.677 842.286 667.708C836.47 677.92 831.101 688.759 826.235 700.259ZM843.082 666.32C891.733 680.201 941.866 687.628 992.11 688.51C993.839 676.104 996.319 664.576 999.454 653.859C953.876 653.09 908.422 646.641 864.299 634.585C856.723 644.412 849.625 654.975 843.082 666.32ZM865.328 633.258C909.271 645.209 954.532 651.586 999.911 652.315C1002.99 642.084 1006.66 632.599 1010.86 623.799C969.63 623.119 928.556 617.475 888.706 606.942C880.516 615.055 872.7 623.813 865.328 633.258ZM889.992 605.676C929.673 616.088 970.563 621.64 1011.6 622.26C1014.41 616.508 1017.44 611.053 1020.67 605.878C982.782 604.988 945.128 599.333 908.683 588.979C902.271 594.21 896.032 599.77 889.992 605.676ZM910.158 587.784C946.447 597.997 983.928 603.541 1021.64 604.349C1026.17 597.26 1031.07 590.705 1036.29 584.636C1001.89 584.072 967.79 579.185 934.868 569.975C926.405 575.427 918.151 581.352 910.158 587.784ZM936.627 568.851C969.421 577.901 1003.38 582.652 1037.62 583.105C1042.83 577.19 1048.34 571.746 1054.09 566.729C1023.33 566.256 992.895 561.891 963.566 553.622C954.406 558.217 945.407 563.282 936.627 568.851ZM965.645 552.589C994.887 560.675 1025.22 564.877 1055.87 565.202C1060.66 561.13 1065.61 557.346 1070.68 553.826C1073.11 552.141 1075.57 550.517 1078.05 548.951C1050.8 548.999 1023.86 545.607 997.931 538.753C987.022 542.78 976.23 547.375 965.645 552.589ZM1000.5 537.814C1026.43 544.461 1053.35 547.645 1080.56 547.386C1089.46 541.946 1098.65 537.224 1107.96 533.098C1084.45 533.717 1061.19 531.453 1038.76 526.31C1025.95 529.447 1013.15 533.254 1000.5 537.814ZM1042.2 525.482C1064.79 530.378 1088.2 532.359 1111.83 531.416C1120.24 527.849 1128.72 524.75 1137.16 522.027C1118.33 522.875 1099.72 521.587 1081.73 518.159C1068.66 519.954 1055.43 522.365 1042.2 525.482ZM1086.82 517.489C1101.28 519.923 1116.11 520.985 1131.12 520.673C1123.36 519.352 1115.73 517.563 1108.28 515.306C1101.2 515.859 1094.04 516.581 1086.82 517.489ZM1112.72 514.981C1121.45 517.409 1130.42 519.201 1139.54 520.354C1140.09 520.325 1140.63 520.293 1141.18 520.259C1141.51 520.239 1141.85 520.218 1142.18 520.196L1142.63 520.166C1142.84 520.152 1143.04 520.138 1143.25 520.124C1146.99 518.991 1150.71 517.929 1154.41 516.928C1151.56 515.997 1148.74 514.98 1145.96 513.876C1135.18 513.858 1124.06 514.204 1112.72 514.981ZM1150.4 513.904C1152.64 514.72 1154.91 515.48 1157.2 516.185C1159.72 515.522 1162.23 514.887 1164.72 514.277C1160.02 514.084 1155.25 513.957 1150.4 513.904ZM1170.29 514.54L1170.44 514.548L1170.44 514.506C1175.39 513.352 1180.26 512.294 1185.03 511.311C1185.78 511.732 1186.53 512.145 1187.28 512.548C1186.98 512.719 1186.68 512.892 1186.38 513.067C1186.05 513.258 1185.72 513.452 1185.4 513.648C1178.05 515.398 1170.68 516.823 1163.32 517.924C1162.23 517.641 1161.15 517.346 1160.08 517.039C1163.51 516.158 1166.92 515.327 1170.29 514.54ZM1140.5 671.751C1092.33 683.702 1042.95 689.267 993.672 688.536C995.412 676.118 997.907 664.59 1001.06 653.883C1046.59 654.517 1092.22 649.483 1136.76 638.706C1137.35 649.11 1138.57 660.124 1140.5 671.751ZM1136.68 637.13C1092.32 647.889 1046.87 652.934 1001.52 652.339C1004.63 642.096 1008.34 632.613 1012.57 623.825C1054.21 624.373 1095.99 619.86 1136.81 610.209C1136.27 618.673 1136.2 627.646 1136.68 637.13ZM1136.93 608.589C1096.31 618.231 1054.75 622.771 1013.32 622.284C1016.16 616.532 1019.22 611.082 1022.48 605.917C1061.33 606.673 1100.41 602.422 1138.68 593.092C1137.9 598.05 1137.32 603.216 1136.93 608.589ZM1138.94 591.431C1100.91 600.761 1062.07 605.055 1023.46 604.384C1028.05 597.281 1033.03 590.724 1038.32 584.664C1073.32 585.065 1108.62 580.992 1143.27 572.445C1141.51 578.388 1140.06 584.716 1138.94 591.431ZM1143.8 570.72C1109.42 579.277 1074.41 583.412 1039.68 583.127C1044.98 577.202 1050.59 571.761 1056.43 566.758C1087.39 567.035 1118.66 563.375 1149.44 555.789C1147.33 560.456 1145.44 565.432 1143.8 570.72ZM1150.28 553.989C1119.82 561.597 1088.89 565.343 1058.26 565.219C1062.57 561.621 1067.02 558.254 1071.57 555.1C1074.67 552.947 1077.82 550.892 1081.01 548.932C1106.95 548.649 1133.16 545.254 1159.03 538.766C1155.82 543.393 1152.89 548.466 1150.28 553.989ZM1160.41 536.82C1134.96 543.344 1109.18 546.857 1083.64 547.343C1092.91 541.829 1102.48 537.08 1112.17 532.956C1131.8 532.153 1151.57 529.345 1171.16 524.53C1167.34 528.173 1163.74 532.268 1160.41 536.82ZM1173.56 522.332C1154.6 527.182 1135.44 530.136 1116.4 531.198C1124.85 527.769 1133.36 524.796 1141.8 522.188C1142.07 522.218 1142.34 522.249 1142.62 522.278C1142.88 522.307 1143.15 522.336 1143.41 522.364L1143.48 521.673L1143.53 521.66C1156.16 520.77 1168.88 518.923 1181.55 516.12C1178.8 517.997 1176.13 520.067 1173.56 522.332ZM1159.45 518.473C1156.66 518.848 1153.86 519.176 1151.08 519.457C1153.11 518.885 1155.14 518.332 1157.17 517.797C1157.51 517.902 1157.85 518.005 1158.19 518.106C1158.61 518.23 1159.03 518.352 1159.45 518.473ZM1188.91 511.653C1188.39 511.384 1187.88 511.111 1187.37 510.833C1188.03 510.7 1188.68 510.568 1189.33 510.437C1190.44 510.216 1191.55 509.998 1192.64 509.783C1191.38 510.371 1190.14 510.995 1188.91 511.653ZM1162.84 536.19C1166.39 531.523 1170.25 527.372 1174.34 523.73C1202.97 516.369 1231.15 504.714 1257.84 488.757C1256.84 491.348 1256.04 494.088 1255.41 496.963C1225.83 514.715 1194.6 527.801 1162.84 536.19ZM1152.24 553.492C1154.97 547.904 1158.03 542.799 1161.37 538.171C1193.49 529.879 1225.08 516.814 1254.99 499.014C1254.26 502.971 1253.85 507.167 1253.74 511.571C1221.33 530.606 1187.11 544.584 1152.24 553.492ZM1145.56 570.277C1147.26 564.961 1149.2 559.972 1151.38 555.307C1186.53 546.452 1221.03 532.473 1253.71 513.383C1253.68 517.006 1253.85 520.763 1254.2 524.635L1254.22 524.924L1254.25 525.161L1254.28 525.474L1254.29 525.659L1254.34 526.071C1219.64 546.056 1182.99 560.79 1145.56 570.277ZM1140.58 591.027C1141.72 584.287 1143.22 577.949 1145.02 572.01C1182.69 562.55 1219.59 547.798 1254.52 527.754C1255.11 532.969 1256.01 538.387 1257.2 543.97C1220.06 565.349 1180.78 581.006 1140.58 591.027ZM1138.5 608.213C1138.9 602.825 1139.51 597.652 1140.3 592.692C1180.71 582.682 1220.2 567 1257.54 545.56C1258.64 550.489 1259.95 555.542 1261.46 560.692C1222.37 582.176 1180.96 597.988 1138.5 608.213ZM1138.21 636.758C1137.74 627.259 1137.82 618.286 1138.38 609.835C1181.04 599.607 1222.63 583.762 1261.91 562.214C1263.88 568.775 1266.16 575.49 1268.73 582.305C1269.09 583.251 1269.45 584.199 1269.82 585.149C1227.97 608.414 1183.67 625.591 1138.21 636.758ZM1142.01 671.375C1140.08 659.735 1138.86 648.724 1138.29 638.335C1183.92 627.154 1228.38 609.938 1270.38 586.608C1274.06 595.989 1278.25 605.542 1282.85 615.129C1238.03 640.452 1190.64 659.171 1142.01 671.375ZM1255.32 510.638C1255.48 506.153 1255.96 501.911 1256.79 497.942C1276.03 486.346 1294.57 472.783 1312.1 457.262C1316.98 452.942 1321.72 448.526 1326.32 444.023L1333.17 450.659C1328.2 455.535 1323.07 460.315 1317.79 464.993C1298.03 482.497 1277.09 497.713 1255.32 510.638ZM1255.74 524.496C1255.37 520.33 1255.2 516.313 1255.27 512.466C1277.43 499.385 1298.74 483.946 1318.82 466.153C1324.13 461.449 1329.29 456.642 1334.29 451.738L1342.28 459.472C1337.21 464.406 1332 469.247 1326.65 473.99C1304.33 493.749 1280.57 510.825 1255.81 525.218C1255.79 524.977 1255.76 524.736 1255.74 524.496ZM1258.61 543.154C1257.43 537.551 1256.55 532.123 1255.98 526.909C1281.05 512.391 1305.1 495.139 1327.67 475.15C1333.06 470.381 1338.3 465.513 1343.39 460.551L1353.42 470.263C1346.93 476.731 1340.21 483.047 1333.26 489.2C1309.73 510.037 1284.7 528.011 1258.61 543.154ZM1262.85 559.925C1261.34 554.753 1260.03 549.685 1258.95 544.748C1285.29 529.502 1310.55 511.383 1334.29 490.361C1341.27 484.181 1348.02 477.838 1354.54 471.341L1366.59 483.014C1361.31 488.134 1355.89 493.161 1350.32 498.09C1323.02 522.264 1293.66 542.862 1262.85 559.925ZM1270.18 581.758C1267.58 574.86 1265.28 568.071 1263.3 561.448C1294.32 544.299 1323.88 523.58 1351.35 499.251C1356.95 494.295 1362.4 489.241 1367.71 484.093L1383.91 499.774C1377.33 506.242 1370.54 512.574 1363.55 518.763C1334.65 544.341 1303.66 566.203 1271.18 584.386C1270.85 583.509 1270.51 582.633 1270.18 581.758ZM1284.21 614.363C1279.6 604.774 1275.42 595.223 1271.75 585.846C1304.4 567.588 1335.54 545.627 1364.58 519.924C1371.6 513.708 1378.41 507.349 1385.02 500.853L1406.18 521.343C1398.02 529.496 1389.56 537.454 1380.81 545.201C1350.47 572.062 1318.08 595.103 1284.21 614.363ZM1300.63 645.645C1295 635.755 1289.71 625.744 1284.88 615.764C1318.88 596.443 1351.39 573.323 1381.84 546.366C1390.62 538.591 1399.11 530.605 1407.3 522.421L1431.54 545.889C1422.77 554.65 1413.69 563.198 1404.29 571.518C1371.75 600.328 1336.99 625.022 1300.63 645.645ZM1319.79 676.864C1313.38 667.157 1307.21 657.143 1301.4 646.993C1337.85 626.319 1372.7 601.565 1405.32 572.684C1414.75 564.335 1423.86 555.758 1432.65 546.967L1457.96 571.469C1448.65 580.78 1439 589.865 1429.02 598.706C1394.73 629.06 1358.11 655.097 1319.79 676.864ZM1383.92 349.446L1383.88 349.403C1383.63 349.966 1383.38 350.528 1383.12 351.09C1383.39 350.542 1383.66 349.994 1383.92 349.446Z" fill="url(#paint0_radial_5210_487)"/>
<defs>
<radialGradient id="paint0_radial_5210_487" cx="0" cy="0" r="1" gradientUnits="userSpaceOnUse" gradientTransform="translate(961 25) rotate(90) scale(1005 998)">
<stop offset="0.234375" stop-color="#00CBBC"/>
<stop offset="1" stop-color="#00CBBC" stop-opacity="0"/>
</radialGradient>
</defs>
</svg>
